<svg id="Capa_1" enable-background="new 0 0 512 512" height="512" viewBox="0 0 512 512" width="512" xmlns="http://www.w3.org/2000/svg"><g><path d="m241.682 105h-19.091c-39.475 0-71.591-32.116-71.591-71.591v-19.091c0-7.907 6.411-14.318 14.318-14.318h19.091c39.475 0 71.591 32.116 71.591 71.591v19.091c0 7.907-6.411 14.318-14.318 14.318z" fill="#9cdd05"/><path d="m256 205.756c-8.284 0-15-6.716-15-15v-69.512c0-29.011 10.327-57.179 29.079-79.314s44.839-36.953 73.455-41.723c8.172-1.362 15.9 4.158 17.262 12.33 1.362 8.171-4.158 15.9-12.33 17.262-44.887 7.48-77.466 45.939-77.466 91.445v69.512c0 8.284-6.716 15-15 15z" fill="#ccfc5c"/><path d="m343.534.206c-28.616 4.77-54.703 19.587-73.455 41.723-5.411 6.388-10.116 13.281-14.079 20.549v143.278c8.284 0 15-6.716 15-15v-69.512c0-45.506 32.579-83.964 77.466-91.445 8.172-1.362 13.692-9.09 12.33-17.262-1.362-8.172-9.089-13.692-17.262-12.331z" fill="#9cdd05"/><path d="m319.99 512c-4.344 0-8.696-.265-13.054-.8-18.248-2.241-35.331-9.132-50.936-20.529-15.605 11.397-32.688 18.289-50.936 20.529-38.085 4.672-76.03-11.253-106.857-44.85-29.558-32.214-49.181-77.2-55.255-126.672-6.075-49.473 2.083-97.87 22.969-136.277 21.783-40.057 54.751-64.692 92.832-69.369 34.253-4.205 68.3 8.251 97.247 35.264 28.947-27.013 62.992-39.467 97.247-35.264 38.081 4.676 71.049 29.312 92.832 69.369 20.886 38.407 29.043 86.805 22.969 136.277s-25.697 94.458-55.255 126.672c-27.299 29.753-60.189 45.65-93.803 45.65z" fill="#ff7c48"/><g fill="#ff4a4a"><path d="m306.936 511.2c4.358.535 8.709.8 13.054.8 33.615 0 66.504-15.897 93.803-45.65 29.558-32.214 49.181-77.2 55.255-126.672 6.075-49.473-2.083-97.87-22.969-136.277-21.783-40.057-54.751-64.692-92.832-69.369-34.255-4.204-68.3 8.25-97.247 35.264v321.374c15.605 11.397 32.688 18.289 50.936 20.53z"/><circle cx="206" cy="417" r="15"/><circle cx="146" cy="392" r="15"/><circle cx="196" cy="357" r="15"/></g></g></svg>