<?xml version="1.0" encoding="UTF-8" standalone="no"?>
<svg xmlns:rdf="http://www.w3.org/1999/02/22-rdf-syntax-ns#" xmlns="http://www.w3.org/2000/svg" height="1450.4pt" width="1144.9pt" version="1.1" xmlns:cc="http://creativecommons.org/ns#" xmlns:dc="http://purl.org/dc/elements/1.1/" viewBox="0 0 1144.9336 1450.4453">
<path d="m518.29 0c-6.42 1.4101-6.16 10.423-7.79 15.635-0.77 2.848-1.8 8.997-4.74 8.525-2.23-3.102-8.79-7.619-10.76-1.838-0.28 6.41-3.47 14.299-11.11 14.151-6.17 0.826-12.08-3.281-17.17-4.748-9.95 5.583-3.58 18.885-7.02 27.443-2.07 4.891-8.49 5.245-11.34 0.799-2.04-2.107-8.61-3.525-5.62 1.094 2.84 6.588 5.89 17.739-3.57 20.384-10.4 2.285-15.68-9.864-21.99-15.814-4.49 4.185-3.87 14.14-12.26 12.721-12.49-0.91-15.04-15.784-22.88-23.129-2.76-3.616-7.51-4.312-11.14-6.131-0.98-4.452 1.69-12.983-5.25-13.69-7.96-0.416-8.47 10.062-8.63 15.655-0.21 3.3-0.88 10.483-5.61 6.314-7.01-2.553-13.58-7.252-19.56-10.787-13.68 4.107-12.52 23.824-25.88 27.984-5.47 0.887-10.68-2.829-16.25-0.488-5.13 1.437-11.6 1.066-14.52-4.043-6.6 0.584-9.83 7.711-7.91 13.611 1.31 4.908 1.77 10.341 2.49 15.014 4.12 5.888 15.8 1.14 16.71 9.498-0.23 8.21-15.25 12.54-16.76 2.74-2.66-10.51-19.27-14.406-24.51-4.05 0.71 4.9 4.05 10.68 3.66 16.33 0.19 6.46 1.05 13.46 3.09 19.29-5.32 4.44-5.62 13.39 0.75 17.07 2.89 4.16-4.95 5.44-7.11 7.87-4.82 2.87-1.7 8.33-0.66 12.16 0.82 4.07-2.25 7.96-6.32 5.59-6.04-3.3-8.58-14.88-17.21-12.25-5.24 1.51-5.33 8.58-9.93 11.29-3.99 4.32-11.58 11.23-7.06 17.34 2.82 3.7 11.48 8.1 6.72 13.37-4.05 1.24-11.05 5.08-7.06 10.16 2.59 4.56 11.82 7.98 8.45 14.1-4.86 2.35-9.6-4.18-12.79-7.5-3.4-3.01-5.61-6.73-8.5-10.05-6.45-3.42-11.43 5.43-12.71 10.65-1.21 3.62-0.26 8.05 4.42 7.49 9.6 2.75 15.43 15.11 12.5 23.78-14.64 1.31-26-10.28-39.95-12.49-1.37-12.71-15.45-16.93-25.41-21.12-4.01-3.83-11.72-4.09-13.7 2-3.57 7.18 1.32 14.21 4.57 20.31 6.37 18.27-2.76 37.7-2.66 55.79-4.16-2.05-11.75-1.26-10.98 4.88 0.33 7.77 5.93 15.02 5.22 22.6-5.01 5.25 1.23 11.82 5.91 14.56 6.11 4.91 14 8.77 15.52 17.48 3.08 7.84-2.99 17.18-11.66 16.5-4.94 0.02-9.58-5.64-13.34-4.67-2.79 5.3-9.723 11.53-15.353 5.76-7.451 5.41-3.427 15.34-0.602 22.13 2.113 2.93-1.795 10.23 3.495 7.69 4.02-1.05 13.13-3.95 12.19 3.4 2.97 10.19 0.65 21.59-6.68 29.52-7.506 9.42-17.612 16.74-23.587 27.36 3.486 8.35 14.181 7.66 21.024 4.38 5.023-1.15 10.163-5.87 15.063-4.77 6.25 6.74-0.65 17.75-7.09 21.86-4 2.28 2.23 6.25 5.47 5.34 4.56-0.88 11.48-0.47 11.1 5.77 0.01 10.06-12.68 17.75-8.06 28.33 3.16 3.09 9.2-1.53 12.59-3.96 5.53-5.31 13.8-11.48 21.49-6.48 7.31 4.9 15.28 13.64 25.07 9.74 4.45-2.41 1.71 7.23-2.08 6.81-8.51 1.93-17.02-1.82-25.57-1.11-3.3 12.87-18.21 13.47-27.14 20.53-7.11 4.6-12.84-4.82-17.13-9.19-4.395-5.02-10.979 1.81-12.668 6.5-3.475 7.72-0.709 16.98-3.647 24.46-5.585 6.89-6.416 17.76-14.506 22.28-5.816 0.86-15.436-0.87-18.463 5.24 3.44 12.46 3.729 30.67-10.052 37.03-11.046 3.92-20.355 17.24-15.938 28.94 1.26 3.57 5.32 5.24 7.69 7.23-0.147 14.22-14.654 22.15-24.742 29.48-2.6153 3.81 1.786 8.7 6.162 7.42 5.424-0.4 11.772-2.23 16.173 1.61 7.135 2.71-0.693 10.89 1.174 16.14 0.952 5.33 6.768 3.63 10.061 1.36 3.069-1.52 9.065-5.32 11.205-1.95-2.417 7.17 0.259 17.21 8.842 18.21 5.196 9.29-7.015 16.13-8.496 24.89-1.256 4.33 1.26 9.31 6.248 7.65 13.093-1.77 17.945-17.33 17.406-28.75 3.48-4.75 9.814-0.82 11.307 3.59 7.119 1.36 7.782-7.79 9.564-12.36 1.99-3.39 6.98-2.79 10.34-2.74 6 4.1 3.15 15.71 11.03 17.92 8.76 0.47 7.72-11.57 13.75-14.83 8-2.6 15.92-6.29 20.94-13.19 5.44-4.72 10.65-10.77 10.44-18.45-3.89 3.03-9.88 9.5-15 5.96-4.76-7.46 5.55-12.42 5.25-19.76-9.11-4.78-9.85-17.09-18.57-22.32-6.77 3.75-15.11 11.7-23.01 6.66-2.62-9.56 10.77-11.24 14.27-18.3 1.31-2.98 0.69-6.67 5.18-6.34 10.12 0.27 10.69 15.17 20.5 16.94 15.74 0.01 32.51 6.8 47.93 0.66 6.22-2.71 10.01-9 11.37-15.44-9.49-3.39-19.15 3.53-28.42 1.49-2.68-8.57 11.83-13.3 8.1-21.76-1.64-3.26-9.83-3.21-6.49-8 3.66-3.77 7.76-10.43 2.84-14.92 11.93-9.72 26.23-16.36 40.79-21.39 0.38 7.16-6.96 13.24-4.19 20.51 7.11-1.07 4.98 11.43 12.52 9.88 19.44-1.04 37.08-13.22 56.67-11.56 7.96 3.97 0.56 17.51 10.02 20.23 2.13 0.35 4.63 0.34 2.45 3.09-3.42 6.11-14.24 11.68-10.31 20.08 9.78 4.39 20.66-2.57 29.94-5.86-4.49 8.61-6.86 19.12-13.94 25.61-11.96 1.61-11.13 17.72-21.38 21.96 7.4 3.44 15.18-7.23 21.84-1.81 1.08 3.55-4.34 6.36-6.5 9.03-3.6 3.22-8.86 4.84-13.47 2.8-2.26 3.89 2.27 6.46 4.36 8.54-7.46 8.51-13.95 21.82-27.34 21.71-7.63-1.16-0.79 2.9 1.51 5.84 4.49 3.71 4.69 11.01-1.43 12.96-2.75 5.14-3.5 14.51 3.96 15.84 4.28 1.37 10.84-1.09 13.51-0.85-8.68 11.53-25.45 8.34-36.63 16.09-7.12 2.03-16.64 3.72-22.79-1.33-0.61-4.33 4.83-6.62 7.49-9.07-16.63-4.82-34.41-3.17-50.57-9.45-5.66 4.69-11.97 14.04-20.35 8.45-4.05-2.87-11.07-1.72-11.2 4.19-1.4 4.75 2.91 12.99-4.57 13.37-5.7 0.6-10.47-5.05-14.76-5.91-7.18 5.98-17.94 8.25-25.94 2.65-7.63-2.66-12.39 5.36-15.064 11.12-1.699 4.63-7.928 3.52-8.105 8.57-5.097 11.63-20.149 9.99-30.52 10.5-3.344 0.11-6.686 0.46-9.949 1.22 1.556 8.92 13.142 16.03 8.402 25.5-2.359 4.43-8.78 3.08-12.623 5.91-11.025 5.36-20.913 13.27-29.607 21.67-4.6494 6.55-0.448 15.21 6.277 18.33 4.204 3.29 12.505 3.33 11.553 10.4-0.986 11.3-14.566 18.01-13.119 29.98 11.814 6.59 15.334 26.72 3.242 34.68-17.434 4.13-26.108 26.58-18.158 41.98 2.3061 4.1 6.9487 9.5 11.375 5 7.517-5.1 14.248-13.7 24.42-11.8 4.258-0.9-3.954-2.8-5.252-5.2-4.916-5.3-8.211-16.18-1.082-20.98 4.775-1.62 11.094 2.08 14.853-2.83 4.707-4.63 5.394-14.37 12.438-15.88 3.69 3.43-0.625 12.7 6.172 13.75 18.539-2.03 38.777-6.93 52.127-20.67 2.04-4.33-3.49-6.06-6.79-5.15-2.35 0.68-6.88-0.56-4.41-3.55 6.72-8.76 21.25-14.2 30.02-5.48 15.55 10.12 37.6-0.67 42.37-17.76 10.29 0.96 25.03-1.19 27.72-13.18 0.55-4.57 0.69-11.75-3.54-13.72-19.47-3.7-33.57 16.37-52.65 14.3-3.61-0.51-11.44-2.98-6.63-7.34 3.1-2.7 7.32-6.65 4.92-11.19-12.4 1.84-29.22-1.2-37.89 10.45-2.56 5.71 1.89 12.09 8.12 11.54 7.27 1.05 15.9-3.19 22.16 1.4 2.71 8.94-8.52 10.77-14.6 13-13.82 3.75-30.908 7.75-36.908 22.56-5.371 7.69-15.792 0.04-18.965-6.03-4.811-7.23-1.537-16.55 5.254-21.27 9.393-7.01 15.126-17.23 21.694-26.61 4.555-5.87 14.035-2.68 17.845-9.78 3.89-5.16 7.95-15.55 16.2-12.43 17.63 4.38 35.83-5 53.13 0.78 3.79-0.58 6.67-5.57 2.42-7.8-1.75-2.13-8.79-3.47-6.77-7.01 3.96-4.74 10.94-3.9 14.59 0.8 4.45 5.86 10.82 10.94 18.61 9.94 11.02-1 19.51-9.1 27.29-16.17 24.31-0.02 52.66-3.06 68.87-23.5 3.76-2.25 2.84-8.76-2.01-8.23-3.09-0.16-8.14 2.69-9.97 0.64 10.84-7.73 28.48-11.51 31.6-26.66 0.49-5.59 7.89-7.1 11.04-11.38 6.75-5.42 10.33-15.08 6.01-23.07-1.41-8.99 10.13-11.25 15.27-16.14 2.7-3.27 5.88-7.32 10.78-4.67 5.49 2.35 11.69 0.4 14.91-4.65 11.24-10.82 25.87-23.97 23.23-41.28-0.96-5.07 6.05-7.85 9.05-11.22 9.32-6.91 20.19-12.71 29.74-18.45 6.88 10.11-3.41 20.87-8.25 29.42-4.77 8.13-4.51 17.97-9.13 26.31-2.82 8.22-7.69 17-6.56 25.77 2.76 6.58 10.92 3.1 14.79-0.41 2.8-2.39 5.73-4.25 9.11-2.1 9.92 2.55 23.48-6.48 19.49-17.55-1.01-2.23-5.1-8.05 0.1-7.71 5.21 0.89 11.79 0.73 14.06-5.06 3.62-6 10.44-9.16 14.28-14.63 3.35-6.92-1.97-17.96 6.38-22.01 8.49-3.49 17.83-4.89 26.98-4.14-7.79 11.31-12.83 25.62-9.61 39.38 7.48 4.44 13.19-4.9 18.03-9.04 2.88-3.09 8.32-4.16 9.88 0.87 4.63 6.03 6.98 13.91 9.98 20.37 5.2 3.07 13 1.25 13.93-5.38 2.31-7.3 0.26-19.47 10.2-21.14 8.65-4.73 18.29-0.65 27.19 1.13 7.18 1.66 16.7-2.5 17.88-10.21-1.05-7.06-9.27-10.84-13.2-14.98 9.34 3.19 18.35 8.42 28.44 9.77 9.34 1.6 19.39 2.52 28.55 0.67 7.54-7.63-0.71-18.27 0.88-26.7 4.79-3.91 14.93-5.39 13.59-13.7-1.29-9.12-10.24-13.94-14.57-21.37 16.64-2.52 36.36 4.42 50.69-7.21 2.8-2.59 7.02-6.92 1.6-8.74-13.37-7.91-29.78-7.32-44.64-5.14-6-11.86-22.85-9.98-31.84-2.81-4.06 2.66-6.5 7.49-7.83 11.63-12.01 3.36-15.61 17.5-26.1 23.05-7.15-6.99-19.65-12.99-29.15-7.19-3.48 2.41-4.52 6.34-1.64 9.54 2.96 4.98 0.04 13.24-6.8 11.33-14.47-1.04-28.83 5.06-43.08 3.04-7.01-3.99 0.94-12.76-1.66-18.81-3.55-6.57-12.69-6.89-19.26-7.98-14.62-1.25-29.56 3.12-43.84-0.06 4.21-8.31-3-17.7-9.84-22-16.76-12.89-38.09-18.1-58.66-20.01-9.21-7.51-20.73-0.41-30.32 2.05-5.32 1.89-10.69-2.82-15.17 1.68-9.47 5.27-22.76 8.87-31.38 0.39-18.33-10.09-39.22-0.86-57.58 3.99-6.56 1.36-14.74 3.71-20.77 1.7-1.27-6.47 3.55-16.17-2.88-20.89-2.56-2.21-8.81 2.9-6.47-2.5 4.44-8.12 15.42-3.77 22.89-5.18 7 0.52 12.87-8.19 7.97-13.74-2.9-5.17-1.59-17.89 6.59-16.07 7.88 6.43 22.78-1.23 20.26-11.53-2.63-7.01-12.01-5.52-18.06-6.36-8.14-0.65-15.8 2.88-23.35 4.59-6.35-0.75-12.18-6.27-18.89-3.55-0.34-6.4-7.97-9.74-13.09-5.91-3.82 1.39-5.74 6.02-8.69 7.67-15.73-0.01-33.37 6.53-47.75-2.45-2.56-2-6.96-5.41-2.06-8.01 6.65-6.84 17.16-13.95 15.41-24.92-2.71-0.38-11.54 0.22-9.16-4.63 4.46-6.16 11.42-9.83 16.45-15.45 20.78 1.15 44.81-4.93 56.38-23.65 2.45-5.17-5.23-8.51-3.75-13.31 10-3.24 20.82-9.78 31.42-6.6 3.07 9.11-11.92 11.4-11.21 20.32 0.59 3.53 7.27-0.75 10.3 1.93 5.84 2.28 10.74 7.22 14.8 11.69-4.28 10.84-4.74 22.95-10.8 33-2.2 4.91-0.79 13.17 5.96 12.73 7.69 0.28 13.08-6.09 19.37-8.92 8.57 0.91 9.14 15.47 18.45 14.43 6.57-2.03 4.22-10.81 6.47-15.93 0.8-7.44 6.84-15.52 15.15-13.17 3.99 1.89 5.8 0.36 5.04-4.12-0.09-11.4-7.4-25.13 1.73-34.65 8.91-3.13 11.15 13.35 20.26 10.22 3.68-2.09 7.63-7.47 12.25-4.72-3.22 7.48-6.82 15.69-6.1 24.3 0.38 6.43 1.39 13.78 4.95 18.94 8.8 3.31 17.12-4.06 19.51-12.16 2.95-5.12 2.12-12.77 6.84-16.45 5.46-0.34 11.58 8.12 16.55 2.71 4.32-8.13 6.87-17.95 13.75-24.43 5.78-2.77 7.44 8.24 13.59 5.16 6.06-3.13 10.01-9.22 14.34-14.25 4.63-9.49-9.04-20.5 0.01-28.67 6.11-7.29 16.22 1.5 18.19 8.37-0.76 10.57 9.25 17.29 13.74 25.55 6.78 4.53 12.35-4.01 18.1-6.06 7.54-0.85 8.13 9.78 9.11 14.84 5.31 8.61 15.83 13.9 25.72 15.93 6.33 2.1 13.83-0.5 15.73-7.28 3.41-10.99-3.48-21.48-9.7-29.85-10.34-16.38-32.46-22.77-38.62-42.16-2.21-4.99-12.62-5.52-10.2-12.1 4.28-7.66 16.61-4.96 19.34 2.95 3.3 3.82 1.68 10.62 4.54 13.51 12.8 5.66 15.89 24.14 30.78 26.96 5.9 2.4 7.01-6.58 10.27-8.81 3.49 4.88 9.32 8.86 15.63 6.85 7.76-2.43 15.42-5.51 22.8-8.83 8.99-5.99 6.7-19.8 15.61-25.74 6.53 2.71 15.27 4.56 18.3 11.73-7.61 6.67-20.66 7.31-24.44 18.26-6.1 7.92-18.45 8.56-23.06 18.11-4.47 2.68-4.29 9.68 1.03 11.25 5.62 2.28 14.86 3.9 17.2-3.45 8-9.51 22.11-10.56 29.94-20.33 9.91-7.57 26.36-9.38 30.1-23.21 4.68-8.4 8.15-21.87 19.27-23.24 9.13 11.35 27.97 11.17 38.93 2.59 3.15-2.68 5.2-6.73 5.04-10.92 9.72-2.33 16.9-12.12 27.57-10.74-0.64-3.78 1.62-11.04 6.73-7.31 9.04 4.91 13.44 16.73 24.73 17.83 11.28 1.96 23.34-2.47 31.53-10.18 6.17-7.4 3.07-19.87-4.34-24.84-9.38 1.49-15.22-7.98-15.75-15.98-6.91-1.21-15.87-11.25-8.96-17.33 4.55-2.09 9.64 3.69 12.65 6.74 5.01 5.54 7.87 13.65 13.72 18.26 5.24 0.97 12.77-1.72 11.49-8.23-1.02-7.06-5.77-16.48 2.26-21.2 3.96-5.98-4.7-9.63-7.49-13.62-2.83-2.53 4.03-8.86-1.55-6.21-7.05 3.4-16.14-2.64-14.44-10.61 0.68-3.31 2.9-9.82 7.06-7.26 7.61 1.82 15.47-8.92 22.14-1.97 9.87 5.88 6 18.57 4.19 27.59-0.72 5.47-2.08 15.59 5.54 16.37 6.28-0.32 11.68-5.47 15-10.41 3.22-6.15-2.8-16.02 4.57-19.81 3.42-2.15 0.5-8.36-0.4-12.13-3.34-11.37-15.67-19.8-27.44-15.94-11.1 1.23-7.41-15.12 1.34-15.9 9.68-5.86 3.57-21.33-5.7-24.25-2.01-11.72-15.3-14.79-25.39-14.49-10.95-0.5-24.57 0.88-32.26-8.64-7.96-1.51-6.36-11.51-1.12-15.22 3.63-4.1 12.18-4.43 13.24 1.82 2.04 4.95 12.96 5.64 11.79-1.17-9.65-21.98-12.86-49.38-33-65.123-5.12-3.824-11.3-6.189-17.55-7.14 2.52-6.335 13.45-10.929 9.94-18.959-1.92-4.463-6.23-4.727-10.25-2.453-14.57 4.251-33.67 7.293-46.01-2.495 3.35-9.193 14.96-5.539 22.2-5.042 4.17 0.455 8.57 0.587 12.48-1.198-4.91-8.125-14.01-12.578-18.38-21.078-10.47 4.02-21.77 5.798-31.78 10.945-11.36 1.953-20.16-9.849-22.07-19.744-21.49 0.1-37.42 19.763-58.77 19.473-9.64-8.875-24.36-6.961-35.38-2.873-5.81-12.94-21.92-20.124-35.27-15.779-3.18-5.94-1.8-12.967-3.3-19.34-4.25 1.7448-6.79 6.333-11.44 7.064-1.19-3.8915-0.56-11.463-6.5-11.408zm410.26 47.801l-0.72 0.144c-16.45 2.663-22.71 20.215-29.78 32.924-2.94 4.646-6.49 11.096-11.56 12.594-2.79-3.053-0.19-12.694-6.24-9.998-8.16 3.525-5.93 16.274-14.3 19.105-3.1-5.98-11.46-4.857-14.49 0.55-6.77 7.6-20.25 2.26-27.17 10.25-3.64 3.88-3.52 10.97 2.45 12.27 7.61 2.01 11.59-8.06 18.38-8.24 3.69 3.37 4.98 9.71 0.51 13.22-4.78 3.82-7.26 11.83-1.86 16.1 16.55 4.79 29.84-12.01 46.09-10.14-0.93 6.06 4.92 10.47 10.63 9.43 4.32 0.57 11.61-1.99 14.2 2.35 0.8 6.29-5.65 9.67-7.85 15.02 13.79 6.55 30.49 1.87 43.65 10-5.1 6.33-1.63 16.18 6.33 17.83 3.6 0.98 7.8 0.62 6.24 5.64 0.2 10.45-2.99 20.72-3.94 30.86 1.86 4.82 7.46 0.56 9.8-1.38 1.98 11.03-12.5 18.65-8.64 30.04 2.48 3.68 3.63 7.99 2.57 12.53-1.1 3.5 1.1 8.74 5.42 6.87 6.37-4.68 15.38-8.78 17.95-16.96 0.78-3.38-2.22-6.2-4.34-7.93 4.36-6.96 13.47-6.87 20.32-4.09 13.6 2.18 24.4-8.52 34.8-15.28-14.5-13.54-35.2-15.98-53.67-19.74 7.17-15.78 9.11-33.54 7.54-50.69-3.44-1.08-7.85 1-10.75-0.63 2.32-4.09 4.95-12.26-1.6-13.91-7.89-2.03-18.7 3.71-24.23-4.22-2.52-7.96-13.03-3.27-18.44-3.68 10.09-11.13 23.36-19.33 35.66-28.02 5.94-4.47 13.89-7.67 19.09-12.206 0.06-8.179 14.1-13.122 9.22-22.006-10.36-8.049-25.04-3.978-33.73 4.574-2.23 1.946-4.32 4.059-6.27 6.286-5.86-6.847-15.63-4.666-23.15-2.643 2.71-12.615 0.93-27.05-8.12-36.824zm-324.58 37.117l0.88 0.287c17.28 5.615 38.73-0.868 52.79 13.096 6.45 3.639 1.75 15.489-5.02 13.199-6.2-5.65 2.67 8.13-4.22 7.51-5.91-1.09-14.69-0.91-16.47 6.26 1.22 11.84 14.93 14.71 22.33 21.37 17.15 0 25.79 16.89 34.87 28.73 5.18 7.62 13.37 11.89 21.16 16.16 4.52 3.48 10.5 8.67 11.06 13.96-12.47 5.22-10.37 22.17-20.27 29.63-6.52 4.56-15.14-3.87-20.99 2.61-5.17 4.81-5.75 13.5-11.73 17.31-8.46-0.83-10.17-12.27-9.08-19.16 3-8.01-5.98-13.89-13.11-13.16-5.7-0.12-13.58 2.98-13.69 9.42 5.02 9.43 14.04 21.81 6.87 32.28-9.59 5.96-19.68-5.62-29.7-2.82-3.46 1.41-4.18 8.51-1.58 9.36 6.97-1.41 4.58 7.89 7.42 11.55 2.99 3.25 8.24 4.54 8.89 9.72 1.36 5.12 1.52 12.27-5.36 12.83-8.78 2.18-18.26 2.34-26.05 7.43-11.39 2.26-17.98-14.12-29.74-10.38-2.21-4.15-5.54-10.36-10.47-13.47-4.89-3.4-9.35-7.89-12.4-12.73-5.41-2.5-12.18 1.51-11.35 7.72 0.48 7.97 4.42 16.8 11.88 20.4 3.86 11.55-10 21.64-20.39 16.93-5.63-1.02-4.1-7.97 0.1-9.88 3.98-2.36 6.99-7.5 3.55-11.58-2.83-8.58-14.69-7.61-19.67-2.3-2.55-5.19-0.36-14.32-7.89-15.93-4.72 2.94-4.32 11.78-7.12 17.02-1.37 5.09-7.12 6.36-10.73 8.05-3.41 11.62-10.2 23.59-22.2 27.73-8.08 8.07-0.53 19.64 0.96 28.7 0.73 3.56 0.11 8.05-4.48 7.72-6.45 1.66-13.03 2.72-19.52 3.5-8.81-15.72 12.25-30.57 4.85-46.74-4.23-5.33-12.92-1.2-15.36 4.33-2.56 5.22-8.66 12.58-14.93 8.06-5.88-7.85 4.09-16.21 4.33-24.47 1.2-4.95-3.87-10.87-8.78-7.54-3.88 1.85-7.9 9.57-12.39 5.18-3.27-9.22 6.45-19.67-0.59-28.26-3.64-5.26-10.9 1.66-14.73-2.02-4.53-7.92 6.78-16.76 0.98-24-9.82-3.29-18.61 6.09-28.11 4.47-9.93-6.39-15.31-19.11-26.52-23.29-9.15-0.54-18.04-4.26-25.79-8.73-3.86-14.37-17.43-22.39-26.43-33.21 13.46 1.02 29.04 5.01 41.02-3.63 1.51-8.43-6.74-14.44-14.44-14.43-5.57-1.15-12.02 0.89-17.01-1-6.55-6.5-17.52 1.03-23.84-5.09-1.98-3.9 5.1-6.05 7.99-7.05 8.22-1.5 17.14-2.17 23.69-7.96 6.04-3.41 13.62 0.67 15.8 6.85 9.98-5.9 24.57 2.64 32.82-7.43 2.39-4.77 9.76-10.62 14.86-6.65 1.21 3.82-1.49 9.19 3.37 11.57 4.06 2.14 10.03 4.62 8.51 10.07 4.13 6.83 13.84 5.36 19.02 10.42-0.54 8.07 3.76 19.81 13.68 18.32 9.92 0.53 18.44-10.02 28.24-6.07 2.04 3.14 0.88 8.52 3.44 12.07 8.34 16 30.22 23.4 46.62 16.25 5.18-4.49-0.07-10.89-4.31-13.64-2.66-0.88-5.3-7.91-0.78-6.79 13.06 3.86 21.99 17.93 36.53 17.47 4.75-7.49 0.13-16.38-6.39-20.97-5.71-4.2-12.29-11.6-7.44-18.96 4.84-6.12-3.1-0.48-5.97-3.31-4.88-3-5.21-14.03 1.77-13.61 2.19 10.01 13.39 13.31 20.92 18.26 6.11 2.33 8.72-5.28 8.46-9.98-0.08-3.43 0.83-11.24 5.98-7.84 2.44 4.24 4.39 10.16 9.53 12.55 5.47 3.83 13.26-0.26 13.47-6.89 0.43-2.09-0.62-5.14 2.59-3.76 10.11 1.12 21.15-10.28 15.12-20.02-2.98-5.82-11.03-5.76-13.39-12.25-2.42-5.26-6.18-10.13-11-13.03-2.44-7.13 9.89-9.37 12.03-2.77 7.84 11.31 23.35 11.98 33.97 18.28 1.34 17.03 18.69 29.19 34.79 30.33 7.32 0.84 14.06-3.47 18.89-7.97 7.36-0.58 15.44 3.39 22.34 1.45 4.33-5.58-4.29-10.12-7.86-12.96-10.73-8.35-22.76-17.56-37.1-17.15-2.29 3.6-8.41 10.47-11.71 4.23-4.55-7.01-5.46-17.82-13.32-22.19-11.95 0.34-21.54-14.676-16.67-25.422 9.12 3.882 23.28 8.468 29.72-2.15zm100.41 62.872l0.83 0.11c16.87 3.04 35.66 15.22 36.52 33.87-0.25 2.23 0.06 8.43-3.09 4.44-9.3-6.21-21.26-8.06-29.09-16.47-0.3-7.57-2.55-14.9-5.17-21.95zm-345.62 48.91c-7.03 2.75-14.58 3.68-22.15 4.15-5.46-0.38-14.54 5.55-8.88 10.76 4.1 2.22 9.66-1.75 13.14 0.4 0.25 8.32-13.43 12.11-9.94 21.24 1.83 8.62 12.54 5.82 18.73 7.01 2.33 2.61-2.54 6.45-1.05 9.87 2.04 8.24 13.48 6.99 19.22 3.67 9.5-9.19 24.8-3.75 35.27-11.06 3.73-2.52 1.59-7.77 0.69-10.38 8.61-3.8 11.88-14.34 9.36-22.96-7.45-2.47-14.06 8-20.88 2.18-5.24 5.92-16.4 10.29-21.31 1.55-4.81 2.22-8.04-2.7-7.15-7-0.13-3.49 0.03-9.68-5.05-9.43zm553.54 13.16c-0.46 0.01-0.93 0.02-1.38 0.05-6.65 0.29-15.39 3.86-16.64 10.79 1.18 5.43 2.27 12.07 3.81 16.47 9.51 2.18 6.49 14.29 1.65 19.63-3.42 5.04-9.42 6.41-15.1 6.08-8.01 2.22-10.51 11.8-12.92 18.51 1.04 10.43 15.14 9.52 19.38 17.36 1.27 2.85-0.17 6.37-3.72 4.43-3.19-0.63-10.73-3.38-10.8 2.22 1.54 4.27 3.6 10.24-1.97 12.79-3.88 3.29-12.43 4.11-13.11 9.55 2.02 8.3 12.24 6.97 18.57 5.82 3.43-0.53 10.91-0.53 10.47 4.05-8.78 16.22-33.53 13.08-41.64 30.19-1.48 6.23 6.94 9.57 12.16 9.41 5.64 0.8 14.9-1.15 17.32 5.46-9.17 12.91-27.72 23.13-43.13 14.93-11.2-8.06-21.3-22.05-36.53-21.64-7.64 0.73-11.69 8.2-15.27 13.93-1.45 7.84 8.8 11.11 10.68 17.4-4.73 3.57-10.06-2.26-15.34-1.88-12.4-2.35-28.43 2.62-32.59 15.48 0.04 8.48 10.36 9.44 14.57 14.77 1.22 3.03-1.7 6.42 2.13 8.12 10.64 8.54 26.36 7.63 35.81 18.02 16.56-4.11 31.1 12.22 47.55 7.17 4.44-1.92 3.57-7.86-0.48-9.75-8.12-6.07-17.42-9.98-27.47-11.43-6.16-1.2-15.16-5.1-14.07-12.52 6.51-4.92 13.69 3.48 19.51 5.97 4.04 3.12 11.44 4.56 13.72-1.18 25.18 1.82 51.39 18.03 77.15 8.07 4.43-5.72-2.77-12.76-5.34-17.81-3.36-3.76-2.66-10.01 2.64-11.32-1.11-7.61 6.69-11.1 12.96-8.98 10.28 1.76 24.18 5.83 31.88-3.86 0.69-6.21 7.06-10.76 12.79-7.35 8.95 4.02 16.95 10.86 26.86 12.28 6.39 3.94 13.59-1.61 15.29-8.03 2.7-4.01 0.4-12.76 7-12.05 7.1 2.01 5.5 14.86 14.5 13.37 21.2 2.08 42 9.19 59.3 21.82 14.1 6.74 32.2-0.24 40.2-13.15-12.4-16.35-35.3-13.33-52.6-19.31-5.1-1.87-10.7-4.65-13.3-9.13 5.3-6.87 14.8-0.15 21.9-0.98 5.3 0.45 13-4.83 8.2-10.14-2.5-2.46-5.4-9.24 0.7-9.05 16.3-0.73 28.3 17.85 45.1 13 3.4-0.52 10.1-4.86 4.8-7.88-1.5-1.51-6.7-1.87-6-4.43 4.9-1.72 7.7-6.52 8.6-11.59 0.8-4.17 5-6.88 8.5-3.5 21.2 9.53 44.5 12.48 66.8 18.35 12.2-0.82 24.7-9.97 36.6-3.6-5.5 4.56-1.6 12.36 3.9 14.82 6.2 4.16 13.9 5.32 20.6 7.41-3.5 5.05-13.9 7.55-12.4 15.16 1 4.3 9.1 3.18 6.7 8.56-3.9 7.53 0.9 17.14 9.2 18.6 3 0.89 10 3.4 4.7 6.39-5 3.64-13.5 9.14-9.8 16.47 7.5 11.07 22.7 9.17 33.4 14.24 3.5 8.22-1.3 16.74-1.8 25.09 9.4-5.93 20.8-4.42 31.2-6.39-10.8-7.6-12.1-25.7-26.5-28.64-3.6 0.44-5.2-3.18-2-5.24 4.8-3.19 6.1-5.92 0.6-9.25-2.4-1.95-7.8-8.47-1.7-9.12 3.8-2.46 7.7-0.11 9.9 3.41 3.4 5.29 10.9-0.33 8.5-5.42-2.3-12.26-21.3-12.53-21.4-25.7 4-2.75 12.6-3.14 13-9.3-1.5-4.32-9.9-5.92-6.1-11.62 3.4-5.74 13.4-11.12 9.4-19.01-3.7-4.43-9.2-7.64-10.5-13.85-1.8-6.65-6.6-12.92-13.5-14.14 0.9-3.88 14.4-5.13 6.9-9.7-8.5-7.86-20.7-0.87-30.4-4.33-5.2-1.77-4.7-7.16-6.4-11.21-5.2-7.64-18.7 2.02-21.8-8.2-1.7-2.48-7 2.38-10.4 0.61-8.6-2.9-5.9-14.71-1.8-20.48 2.5-3.2 7.9-6.43 4-10.83-4.7-5.05-12-2.03-16.7 1.27-12.1 4.74-24.9-0.01-37.4-0.22-1.6-9.56-13-10.61-20.7-8.84-9.7 0.82-20.6 6.12-29.9 1.55-0.4-5.05 9-10.45 4.1-15.81-7.4-2.17-13.6 6.12-15.4 12.59-3.1 9.92-5.6 22.06-16.7 25.96-6.5 2.9-13.8 3.42-20.8 3.32 5.7 7.85 9.9 21.06 1.2 28.41-10.7-2.14-26-6.58-27.1-19.75-6.7 5.43-13.1 11.93-14 20.96-1 2.45-1.4 9.5-5 5.7-13.2-7.59-31.3 0.45-42.6-11.3-11.36-8.15-28.74-12.48-40.21-2.18-3.46 5.17-9.94-0.25-14.47-0.78-7.09-3.14-15.64-5.78-20.55-11.88-0.71-5.29 9.11-10.48 3.42-15.52-2.45-2.14-7.37-3.07-8.6-5.63 6.95-1.56 12.82 2.83 18.85 5.11 9.27 1.07 12.46-10.39 15.8-16.81-0.96-13.73-15.19-21.48-22.1-31.56 4.09-15.62-12-27.91-26.34-27.85zm-502.11 33.23c-8.99-0.04-14.61 11.43-9.13 18.71 2.2 3.45 5.98 5.85 9.95 3.78 5.28-0.32 10.86 1.63 15.63 2.48-3.59 2.39-11.49 5.8-6.93 11.27 4.88 5.81 13.65-3.87 17.85 2.22 4.69 10.98 17.18 21.69 29.58 16.06 9.81-5.72 1.86-23.65-9.07-19.87-0.97-6.19-1.67-16.48-10.2-16.31-2.46 0.04-8.53 2.13-5.01-2.35 2.86-3.51 4.08-10.17-1.62-11.57-7.02-3.5-14.22 5.04-20.56 1.71-2.4-2.96-5.45-6.29-9.61-6.09-0.3-0.02-0.59-0.04-0.88-0.04zm-89.05 54.3c0.29 0.01 0.57 0.03 0.86 0.07 3.53 1.39 9.26-2 10.7 3.31 1.67 4.84 1.79 10.49 2.6 15.23-8.56 1.39-20.61-4.01-26.7 4.88-2.9 6.56-11.33 13.29-8.31 21.17 2.69 4.04 11.05 3.58 9.53 10.23-2.22 7.95-11.12 14.83-8.36 23.84-11.61 1.1-21.29 8.98-31.45 12.98-12.87-1.79-29.78-4.63-34.74-18.61-10.69-4.15-22.35 3.39-24.97 14.09-0.48 3.77-1.91 6.44-6.08 6.6-15.71 4.57-31.88-1.83-47.89 0.76 1.01 12.31-10.98 23.7-6.05 35.69 6.64 3.1-2.08 8.21-1.45 12.86 0.16 4.36 9.9 4.66 6.01 9.09-3.34 10.56-16.96 13.02-26.17 11.5-6.35-7.41 3.77-14.91 5.24-22.3 0.91-3.13-0.05-6.67-2.49-8.85 1.52-3.28 5.81-10.52 0.04-11.99-2.99 0.81-4.57-0.34-2.82-3.43 3.82-7.71 16.02-12.37 13.99-22.39-0.64-4.14-4.95-4.84-7.22-7.36 1.31-5.32 7.41-9.91 4.85-16 0.84-6.33 10-4.28 14.43-4.05 5.83 2.06 10.6 7.63 17.24 8.66 6.5 1.64 14.98 2.12 20.25-1.83 1.65-9.36 12.88-13.43 13.94-23.15 4.69-6.95 16.23-8.77 18.06-17.72-0.25-4.92-6.4-8.77-10.26-4.65-5.39 4.07-10.99 12.88-18.73 8.31-5.8-2.6-2.62-9.65 1.65-12.13 4.88-4.23 12.96-5.24 14.93-12.56 1.56-4.57 4.89-12.12 10.97-8.63 3.81 4.51 10.14 5.78 15.5 3.11 3.04-1.13 10.47-3.04 7.19 2.74-2.99 4.9-8.73 10.07-6.04 16.39-0.23 13.43-16.31 21.31-15.34 34.81 5.17 11.58 19.89 11.75 30.14 15.35 7.72-0.35 18.06 4.92 24.24-1.87 3.25-4.12 0.9-10.15-4.39-10.92-3.9-1.54-12.4-1.52-11.44-7.62 10.6-6.52 8.02-20.98 14.8-30.02-1.1-3.71-8.67-7.52-4.36-11.11 7.01 1.06 14.83 3.49 18.71 9.47 10.63 1.67 15.89-9.59 20-17.25 2.01-3.4 5.18-6.79 9.39-6.7zm839.56 80.94c-0.6-0.01-1.2 0-1.8 0.01-5.7 0.87-14.6 2.5-15.4 9.7 12.2 12.7 31.1 16.05 42.8 29.26 7.1 2.11 16 5.11 16.2 13.92-0.8 6.34-12 5.99-11.4 13.47 0.1 3.17 0 7.83 4.5 7.98 4 0.3 10.5-0.2 10.1 5.71 2.8 9.35 14.1 12.1 21.9 12.88 3 7.75 14.2 9.22 20.6 5.42 5.3-8.95-1.5-18.96-9.1-23.93-1.4-2.24-10.3-4.86-5.2-6.7 4.7-1.88 13.7-2.23 13.8-8.7-1.8-6.45-11.6-0.59-13.4-6.21-2.6-7.53 12-6.21 10.3-13.9-2.5-5.55-9.8-6.89-14.8-9.73-7.5-3.09-15.8-5.05-23.8-3.22-10.6-14.3-27.1-25.68-45.3-25.96zm-407.53 71.66c-0.35 0-0.68 0.02-1 0.06-8.3 0.04-18.02 0.88-22.79 8.87-2.72 4.09-7.05 12.11-0.23 14.24 8.15 1.62 10.91-9.24 16.61-12.85 5.63-3.83 13.6 4.79 18.72-0.93 2.92-6.42-6.06-9.48-11.31-9.39zm344.23 40.99c-11.7 0.75-20.7 12.61-19.4 24.09-2.7 8.76-19.7 6.07-17.9-3.76-4.4-2.96-10.6-0.98-11.6 4.42-1.3 6.23-5.4 12.43-12.6 11.77-8.1 0.52-13.5-5.83-19.9-9.29-9.8-3.09-15.9 7.76-22 13.27 0.83 6.39 8 8.97 10.7 14.27 12.6 10.69 29.5 1.42 43.8 3 7.7 0.56 13.5 6.55 15 13.81 6.7 14.62 20.2 25.06 33.4 33.29 9.1-0.87 20.1-2.67 27.6 2.9-2 3.08-9.9 7.19-5.7 11.47 12.9 3.85 24.5 11.13 37.1 15.77 10 4.09 22.5 2.03 29.1-7.03-4-12.5-20-11.24-29.2-17.32-1.8-1.1-4.2-2.85-1.1-4.37 4.9-4.25 13.4-12.16 19.2-5.03 4.2 4.43 6.1 14.08 13.4 13.84 11.9-2.53 13.6-16.37 15.7-26.15 1-6.37 7.1-15.16 14.4-12.46 4.9 4.8 6.1 15.46 15 14.89 14 2.41 25.4 11.95 34 22.66 11.6-2.38 23.2-5.61 34.3-9.27 12.5 10.15 32.2 0.76 43.1 13.31 3.4 4.57 7.9 10.48 3.8 16.22-3.6 6.96-13.5 10.21-19.8 4.61-6.5-2.82-9 6.06-12.1 9.83-4.7 5.51-12.4 1.23-15.6-3.73-3.3-4.1-8.1-7.78-13.6-5.52-19 0.08-34.2-19.8-53.8-14.19-4 0.92-7.4 3.1-5.9 7.64 0.3 4.46 0.6 10.97 4.2 13.24 16-3.21 26.6 11.91 35.9 22.12 7.8 9.79 19.8 13.56 29.8 20.29 5.8 3.96 13.9 3.9 19.1-1.01 5.4-1.46 5.4 6.79 7.4 10.01 1.1 2.11-3.8-1.19-5-0.85-8.2-2.19-17.8-1.3-24.1 4.92 7.8 13.73 25.8 12.34 39.3 13.9 15.2 0.18 24.2 18.4 39.8 16.52 5.9-1.08 11.8-6.82 7.9-12.83-3.4-9.03-11.8-14.76-17.1-22.43 4.8-7 12-0.1 15.2 4.56 4.7 5.58 11.2 15.57 19.8 11.23 5.5-9.75-3.8-19.86-6.6-28.94 3.8-7.46 6.5-20.11 16.8-20.62 5.6 0.54 9.9 6.44 15.8 3.34 9.7-4.43 6.7-18.88-0.4-24.48-3.9-3.77-9.3-1.85-14-2.76-7.6-0.28-15.3 5.75-22.7 2.71-3.7-6.08 2.4-12.92 2.1-19.43 0.7-6.37 4.6-12.49 11-14.26-7.1-9.61-21.3-7.77-29.6-0.87-9.2 2.53-12.2-8.85-16.4-14.53-2-3.7-6.1-6.06-9.5-7.47-2-9.79 10.5-12.32 17.5-13.12 4-1.17 17.1 0.35 8.3-4.09-27-18.21-62.6-14.44-91.6-3.59-7.4 7.01-10.4 21.94-22.7 21.77-8.2-0.04-9.2-10.91-10.9-16.96-2.1-11.4-2.7-27.51-15.9-32-4 0.03-7.9 4.88-12.8 4.15-4.9 0.98-9-4.02-12.9-3.8-18.1 7.21-38.4-10.71-35.7-29.41-9 2.59-18.1 3.65-27.4 3.55-1.8 6.89 6.1 9.38 10.5 12.28 4.5 12.43-8.6 22.64-20 22.57-9.1 1.01-18.1-2.89-23.8-9.88-5.2-3.35-15-4.34-13.3-12.73 0.7-8.44 14.6-10.96 12.1-20.53-1.5-2.9-6.3-3.57-9.5-3.51zm-208.94 69.47c-10.41 0.63-19.35 11.48-30.08 6.5-9.29-1.18-15.28 7.63-23.36 10.37-0.52 7.38 9.4 9.54 11.76 14.19-4.57 3.28-14.76 6.41-11.8 13.97 13.15 1.87 27.14 8.88 40.36 5.51 3.17-6.37 11.85-4.92 16.63-7.35 3.62-5.06-1.77-9.76-5.75-12.27-3.76-4.99 4.23-7.43 8.11-6.68 10.58 1.72 11.13 16.07 7.49 23.84-1.7 5.06 6.08 7.33 10.29 7.51 6.67 1.22 16.7-2.7 20.52 4.62 0.95 2.83 0.4 5.11-2.84 3.67-14.21-1.6-27.76 10.83-41.61 4.57-3.9-3.18-7.27-6.33-12.72-6.3-10.53-1.8-22.64-4.29-32.58-0.1-3.56 8.42 6.95 13.93 11.56 19.1 3.79 7.77 12.58 9.88 20.06 12.52 4.92 0.86 8.89 10.28 2.37 11.13-12.7 3.15-25.28-1.82-37.38-5.11-2.79 9.77-15.32 6.35-22.65 5.88-4.17-0.8-7.41 0.34-10.08 3.45-6.73 2.97-14.54 4.39-19.27 10.57-10.6 6.25-25.01-4.81-34.72 4.6-6.31 7.27 0.21 19.04 8.73 21.3 7.02 2.8 15.15 0.38 20.85-3.44 12.57 4.46 27.05 5.64 36.77 15.67 10.39 3.93 24 11.32 34.24 3.15 2.15-3.23 5.22-3.95 8.95-4.31 8.23-1.71 19.76-7.41 17.75-17.57-2.07-4.64 6.17-5.37 8.8-7.59 9-3.5 17.86-7.93 24.16-15.43 13.92-8.9 30.62 1.24 45.59-2.83 8.9-5.44 19.89-9.95 30.31-8.48 12.88 6.7 24.38 21.43 40.48 18.9 7.5-1.04 13.9-7.72 12.3-15.56-1.6-8.31-8.5-13.94-13.7-20.04 9.4 0.3 20.8-1.84 25.4-11.09 23.9-0.23 48.8-4.91 71.5 4.52 7.6 1.14 18.5-0.06 20.6-8.95-20.7-0.23-35.5-22.74-57-18.51-10.1 1.39-10.6-12.33-17.8-16.55-12.2-5.98-29.8-5.24-37-18.85-1.1-2.98-1.7-5.65-5.4-3.21-13.8 3.71-28.74-0.37-42.31 4.28-5.07 4.61-2.19 11.77 0.73 16.66-12.78 0.93-26.45 11.38-38.7 3.35-6.26-3.51-10.33-9.56-11.93-16.56-1.87-7.33-8.35-13-16.2-12.08-8.24-0.5-21.03 2.5-24.39-7.62-0.29-3.13-4.52-3.23-7.04-3.35zm-204.43 0.54c-7.29 0.14-7.14 9.43-12.65 12.64-9.62 8.27-22.92 11.1-31.72 20.49 4.66 8.79 16.23 5.17 23.67 2.87 5.15-3.02 12.43-0.9 16.87-4.96 2.56-4.88-7.71-8.4-3.82-12.68 11.86-0.16 24.55-1.65 35.78 3.44 3.56-2.74 7.1-9.67 1.36-12.14-7.45-3.11-16.38-2.84-22.71-8.19-2.17-0.82-4.44-1.53-6.78-1.47zm-581.98 60.09c0.9 4.53-3.976 9.06-5.374 13.48-3.494 5.9-3.079 16.79 5.404 17.87 4.27 0.58 13.04 1.22 9.21 7.67-1.16 4.35-7.59 2.83-10.7 5.8-10.338 5.4-21.645 16.43-34.111 10.42-3.236-3.56-3.908-9.67 1.156-11.81 8.924-8.28 1.704-25.08 14.008-30.81 6.611-4.49 13.105-9.33 20.407-12.62zm787.32 16.4c12.63 0.52 20.62 11.98 30.79 17.83 2.69 5.97-6.29 6.04-9.8 4.83-8.14-0.4-11.87-8.07-18.65-11.1-3.46-1.85-12.69-5.78-7.17-10.46 1.18-1.22 3.27-0.93 4.83-1.1zm-439.25 2.71c0.27-0.01 0.54 0 0.81 0.02 5.74-0.13 0.13 4.67-1.39 6.51-6.92 7.36-16.69 10.62-25.58 13.91-6.66 10.97-19.84 16.48-31.94 17.91-3.69-5.95 5.88-8.03 7.96-12.51 2.2-5.32 0.45-11.83 4.78-16.52 4.03-7.43 14.48-10.26 20.96-4.36 8.55 4.47 16.04-4.87 24.4-4.96zm33.18 0.61c7.11 1.78 1.81 10.47-1.21 13.66-4.04 5.33-10.17 8.49-16.39 9.91-12.94 8.43-15.89-15.76-1.93-13.3 7.58-1.32 11.74-9.88 19.53-10.27zm-257.76 28.1c-0.32-0.01-0.65 0-0.98 0.04-6.24-0.14-12.18 5.59-9.89 12.07 2.16 9.01 15.9 5.97 17.07-2.06 1.3-4.42-1.45-9.86-6.2-10.05zm686.4 32.66c-0.56-0.01-1.12 0-1.68 0.04-6 0.44-15.6-0.36-17.25 7.36-0.97 2.51 4.15 6.31-0.74 5.23-5.99-0.19-16.38-2.13-18.22 5.81-0.58 5.23 6.68 7 10.1 10.03 10.28 6.31 24.51 10.82 35.64 4.75 1.09-3.04-2.78-4.95-4.6-6.61 17.98 4.62 32.84 18.75 51.61 20.3 6.26-0.82 16.83 1.72 19.56-6.03 1.67-7-6.37-10.57-9.91-15.47-2.95-2.27-6.31-7.94-9.87-3.84-12.16 7.89-24.31-3.43-33.07-10.97-6.18-5.07-13.29-10.41-21.57-10.6zm-171.37 9.3c-9.55 0.6-19.44 0.55-28.68 1.95-6.29 2.33-14.88 7.55-11.91 15.56 3.04 4.42 10.65 1.74 15.47 1.55 5.75-0.85 15.67-3.03 17.59 4.88 14.34 3.91 32.93 8.2 44.81-3.64 4.94-4.02 2.73-13.3-4.11-13.55-6.81-0.08-12.6-3.24-18.89-5.28-4.66-1.19-9.49-1.52-14.28-1.47zm-372.25 0.18c8.93 11.47-10.29 20.6-19.94 18.59 5.48-7.39 15.22-10.49 19.94-18.59zm985.28 12c-5.3 1-10.8 2.09-16.2 1.21 1.2 17.85 16.7 32.09 33.4 35.97 10.4-1.4 10-21.13-1.3-20.66-7.8-2.47-6.3-16.63-15.9-16.52zm-1140.6 98.97l0.69 0.29c7.12 3.46 15.58 7.3 23.45 3.76 8.14 4.48 18.24 7.77 26.97 7.37-4.73 12.06-20.9 13.26-26.88 24.55-9.32 11.06-29.37 9.22-35.98-3.86-13.21 3.03-26.83 6.49-40.26 7.03-2.09-5.72 2.12-11.61 8.25-10.57 9.67-0.02 23.91 4.46 29.92-6.23 0.55-9.25 7.23-16.41 13.84-22.34zm151.16 45.7c-0.37-0.01-0.75 0.01-1.12 0.03-3.68 0.12-6.5 0.12-8.94 2.79-4.5 0.74-11.47-4.13-14.48 1.74-4.74 4.19-3.47 11.4-7.34 15.98-2.55 2.14-8.22 2.58-7.22-2.38 0.53-3.99-0.57-10.77-6.09-9.68-1.9 1.91-0.34 8.67-5.06 10.24-6.98 3.83-18.31-1.42-22.17 7.7-3 4.95 0.23 12.58 6.16 12.09-0.68 4.88 3.47 10.73 8.77 8.38 5.48-1.82 9.44-6.96 12.24-11.36 8.62 3.42 5.19 14.89 8.88 21.77 9.08 0.89 15.56-7.15 18.43-14.73 14.53-2.21 20.36-18.26 22.07-31.03 0.84-3.77 3.36-11.28-3-11.49-0.38-0.04-0.75-0.05-1.13-0.05zm-297.51 16.69c2.47 0.07 3.47 2.42 0.65 4.18-3.736 5.14-11.202 5.91-14.498 11.15-0.415 5.04 7.171 3.16 10.159 4.43 5.307 0.57 1.763 6.06-0.733 7.85-7.708 9.28-8.498 25.1-21.467 29.21 0.144 5.1-5.259 11.48-9.589 5.91-5.392-4.97-7.8-17.05 1.566-19.09 8.413-5.95 2.977-17.27 1.336-25.13-1.603-4.58 0.247-8.62 5.242-9.33 8.484-3.55 17.24-7.03 26.193-9.06 0.407-0.09 0.788-0.13 1.141-0.12zm203.8 11.3c-5.95 2.89-12.59 7.33-15.74 13.59-1.86 4.16-0.91 9.34 4.6 8.83 7.35 2.42 16.34 2.95 22.03-3.17 6.62-4.74 0.76-13.95-4.58-17.07-1.86-1.23-4.03-2.23-6.31-2.18zm-125.67 65.74l-1.18 0.38-0.24 0.07c-14.99 4.84-32.22 8.71-42.14 22.12-13.094 7.41-29.938 6.58-41.978 15.67-3.296 6.22 6.018 8.42 7.865 12.52-3.73 3.7-10.339 3.2-14.763 6.4-4.002 2.8-12.069 5.1-8.805 11.1 2.219 10.4 1.506 25.3 13.012 30.4 2.911 1 11.171 3 6.675-1.7-2.392-4.5-9.258-7.8-8.789-12.9 11.03-18.9 28.436-33.2 43.883-48.1 22.06 10.8 51.32-11.85 46.46-35.96zm-28.82 49.06c-0.48 0-0.98 0-1.49 0.1-11.21 2.5-22.415 6.4-32.66 11.7-7.434 4-14.361 12.9-12.4 21.2 7.705 5.9 16.211-1.7 20.834-7.8 3.554-4.6 10.586-10.1 15.856-4.4 6 6.8 17.37 2 18.76-6.3 2.19-6.8-1.64-14.3-8.9-14.5z" transform="scale(.8)" fill="#a6a92f"/>
<path d="m714.7 50.348c-5.66 0.176-11.9 5.379-10.48 10.685 15.98 11.048 36.8 6.858 54.02 1.342 5.86 3.841 0.52 10.425-3.36 13.465-2.46 2.536-4.79 5.537-5.16 9.18 18.16 0.871 30.92 16.26 36.98 31.96 5.34 12.87 9.52 26.71 14.23 39.76-3.67 3.09-7.79-1.62-8.63-4.97-9.32-9.07-25.81 5.79-19.6 16.33 2.92 3.3 7.1 4.69 10.13 7.95 14.5 9.09 33.86-0.18 47.78 9.9 3.94 3.22 2.88 9.23 8.15 10.5 6.76 3.8 9.93 17.14 0.48 19.46-7.85 2.6-10.82 16.23-1.9 19.24 6.28 1.2 13.14-2.51 18.98 1.69 7.6 4.37 11.74 13.57 11.99 21.94-8.04 3.24-4.13 13.49-5.44 19.86-2.41 5-8.01 10.24-13.88 10-4.83-3.32-2.41-11.19-1.8-16.19 2.47-9.09 3.89-21.52-5.69-27.12-5.45-6-13.43-1.12-19.31 1.3-3.81 1.81-7.46-3.17-9.85 1.2-7.03 6.54-4.82 20.7 5.43 22.38 2.36 1.17 6.81-1.72 5.98 2.2 0.62 5.65 9.7 6.98 8.77 12.69-4.73 3.26-6.7 9.33-4.79 14.88 1.04 4.42 4.69 13.26-2.8 13.81-7.02 1.39-8.64-8.42-12.65-12.46-4.05-6.02-10.55-13.68-18.25-12.85-7.39 3.71-5.48 14.04 0.38 18.3 2.45 3.01 7.8 2.72 7.39 7.53 1.72 7.51 8.63 13.92 16.66 12.95 8.08 6.85 7.29 21.95-3.61 25.28-9.75 11.65-27.36 6.71-37.78-1.32-3.87-1.91-7.08-7.23-10.56-7.78-11.41 7.69-29.39 8.32-35.21 22.68-1.56 5.47-9.26 5.88-13.87 7.99-10.47 3.01-22.61 1.92-31.27-5.12-15.96 7.58-14.23 31.51-31.85 37.23-13.58 5.81-25.67 14.44-39.04 20.71-4.76 2.24-7.89 6.96-10.96 10.59-4.37 0.66-13.59 0.65-13.87-5.22 3.99-6.36 9.45-11.93 16.82-14.56 6.62-2.4 9.74-8.78 13.68-13.92 5.96-5.33 16.82-5.85 20.39-13.08-3.22-8.79-13.91-11.87-21.72-14.02-11.32 5.89-7.18 24.94-20.73 28.06-8.45 2-17.82 10.56-26.44 4.94-2.26-2.41-6.01-8.23-9.26-3.54-2.04 2.57-3.21 9.58-7.72 6.66-13.75-3.58-16.22-21.33-29.16-26.35 0.02-9.97-7.32-23.31-18.9-21.05-5.99 0.39-12.15 7.99-7.19 13.13 4.17 3.31 9.99 5.46 10.95 11.37 8.71 17.99 30.66 24.36 39.6 42.14 6.27 7.23 11.62 20.72 3.39 28.3-7.71 3.52-17.03-0.94-23.96-4.85-5.18-3.3-10.78-7.3-10.37-14.15-0.38-6.35-6.58-14.12-13.36-10.04-4.68 2.84-10.54 9.86-15.92 4.11-5.36-3.38-10.15 5.54-5.01 9.05 9.7 18.39 21.99 36.74 25.1 57.54-1.57 7.78-2.15 17.44 3.66 23.56 5.41 1.55 10.95 3.23 16.61 3.14-4.91-5.33-17.69-6.05-15.46-15.92 2.71-25.31-14.46-46.51-22.29-69.27 11.12-2.96 20.43 6.11 27.15 13.41 17.47 8.65 17.43 31.3 29.63 44.62 19.03-7.04 28.66-26.6 44.6-38.02 16.75-13.14 38.09-19.77 52.74-35.76 22.37-17.26 47.85-30.52 74.01-40.99 5.09-0.63 9.02 4.92 5.4 9-3.76 18.25-20.91 28.98-29.07 44.99-8.57 11.2-27.38 13.71-30.42 29.19-2.3 8.19 1.23 1.08 5-0.02 5.38-1.71 13.37 4.88 15.33-2.95 1.57-4.54 8.39-10.08 12.08-4.95 3.66 11.7-10.28 20.54-8.11 32.34 4.15 4.09 10.12 1.05 12.29-3.55 4.17-8.15 14.09-4.06 21.25-4.86 14.47-0.12 28.89 2 42.59 6.72 8.44 0.99 13.13-12.03 21.76-7.3 11.07 3.25 9.75 18.62 17.39 24.51 14.59-2.36 29.61-1.22 44.35-0.07-5.92-19.89 10.04-46.21 32.21-44.01 7.22-0.19 7.02 8.85 11.01 13.13 3.54 5.27 7.29 11.34 12.32 14.85 16.37-1.06 23.34-18.05 33.09-28.53 5-6.14 12.98-7.43 20.32-7.6 9.42-2.31 18.2 9.09 11.98 16.96-0.35 4.55-6.23 11.26-1.21 14.98 4.69 1.84 5.34-5.71 8.89-7.73 9.25-9.52 23.97-18.4 22.87-33.64-0.7-14.8 18.8-22.33 29.7-13.54 3.7 0.99 8.1-4.78 13-4.1 8.1-1.05 16.4 2.36 24.2 1.5 7.7-8.06 20.1-6.84 28.9-1.57 16 2.81 33.8 5.06 48.3-3.92 7.6-3.46 14.7 3.88 14.3 11.42 1.4 4.09-1.9 11 0.2 12.96 14.3-0.35 32.7-3.61 42.9 9.01 2.4 5.8 7.3 10.05 13.4 11.81 3.9 1.56 8.5 3.61 10 8-19.4 5.96-43.3-2.47-59.9 12.08-3.6 5.14-9.4 7.69-15.7 7.1-4.7-0.01-9.7 1.78-11.9 6.26 9.8-0.23 20.4-0.07 29.3-4.27 4.1-4.42 5-14.43 13.3-11.33 21 2.67 42.3-3.46 63.1 0.5 12.7 0.09 22-16.24 35.1-9.99 5 14.84 27.2 21.34 38.5 9.69 0.9-8.36 5.6-18.21 0.3-25.84-10.7-5.07-26.3-2.64-32.9-14.17-0.9-8.53 10.9-9.9 13.3-17.14-4.6-7.07-17.4-4.82-18.1-15.1 0.2-4.35 4.6-11.7-1.8-13.77-5.7-0.63-3.8-6.91 0.2-8.47 2.3-2.81 10.5-5.21 8.1-10.13-5.8-3.28-13.3-2.65-19-6.54-4.8-1.71-11-8.28-5.1-12.66 3.5-2.53-3.4-4.67-6.1-5.51-14.2-3.31-27.6 9.47-41.5 3.14-21-4.76-42.6-8.78-62.1-17.99-8.9 1.46-5.5 14.73-13.8 16.68-6.2 4.33 3.2 8.42 6.1 10.09-10.8 8.24-23.5-1.08-33.3-6.23-6.2-2.97-15.5-7.29-21.5-1.81-3.4 4.93 4 9.34 3.5 13.64-8.2 8.81-22.3-4.89-30.3 4.26-3.7 4.72 4.2 8.5 7.7 11 17.8 9.85 42.2 3.76 56.6 19.88-9 12.91-29.5 18.11-41.8 6.93-17.2-11.54-37.8-16.67-58.1-18.73-3.6-4.49-5.3-14.12-12.9-12.81-7.2 0.52-4.6 9.71-7.9 14.43-1.4 5.91-8.2 8.88-13.04 5.07-12.36-0.67-20.96-14.12-33.64-12.66-7.44 1.69-5.97 12.4-13.76 13.57-11.38 3.92-23.32-5.21-34.45-0.42-3.74 1.68-3.42 6.63-5.18 9.19-6.55 3.13-4.16 11.51-0.43 15.89 1.72 3.57 7.24 8.88 4.15 12.58-25.99 8.87-51.05-7.88-76.97-8.76-1.4 7.21-9.27 2.84-12.9 0.2-5.62-3.26-14.31-10.38-20.35-4.04-3.05 5.94 3.4 12.68 9.04 14.56 9.68 3.54 20.54 3.87 28.93 10.45 3.19 1.27 10 6.43 3.85 8.45-15.37 2.6-29.01-11.17-44.63-8.06-9.8-10.27-26.88-8.87-36.22-18.8 2.39-6.84-5.18-10.6-10.22-12.85-5.05-2.26-5.42-8.53-1.13-11.69 9.62-10.82 26.46-9.57 38.65-4.4 4.06 0.18 8.4-4.18 4.68-7.68-2.94-4.45-12.11-8.64-8.41-14.87 3.55-5.28 8.53-12.19 16.07-10.15 13.97 2.81 21.7 16.25 33.7 22.48 16.74 6.51 35.39-4.28 44.64-18.26-2.62-9.63-14.98-7.31-22.37-8.36-4.22 0.05-10.77-4.46-5.96-8.52 10.43-13.79 33.8-11.57 40.62-29.01-1.39-6.71-10.7-6.71-16.21-5.58-4.23 0.98-13.42 1.41-12.94-4.69 5.7-4.12 17.81-6.48 16.36-15.86-0.2-2.39-4.2-7.94 1.23-6.19 3.66 0.69 11.75 3.72 11.87-2.67 1.02-9.41-10.68-11.11-16.42-15.35-6.11-3.99-0.94-10.85 1.26-15.6 2.21-5.84 8.3-5.78 13.46-6.1 9.95-3 17.76-15.58 13.27-25.56-1.42-3.74-7.29-3.1-6.24-7.8-0.83-5.51-5.26-12.72 1.7-15.92 14.31-9.59 39.57 3.15 35.3 21.51 0.17 5.51 7.57 8.96 10.8 13.4 5.71 6.02 14.99 15.13 8.67 23.6-1.92 5.39-7.16 12.16-13.41 8.56-3.68 0.23-10.5-4.59-12.88 0.05-0.69 4.45 7.68 5.97 3.32 10.37-3.84 3.6-6.41 11.21-0.18 13.97 9.74 6.03 21.34 12.03 32.58 12.33 8.93-11.1 25.43-9.68 36.39-2.63 14.8 10.24 33.7 7.35 50.2 12.04 2.5-7.78 5.9-15.23 12.6-20.2 7.3-4.45 4.2-15.75 12.1-20.07 3.1-1.69 6.2-2.15 5.1-6.42 2.7-10.8 19.9-6.25 22.5-16.95 1.2-6.7-7.6-4.97-11.4-8.29-5.1-3.52-12-7.95-12.6-14.51 2.7-8.28 17.7-5.88 18-15.88-1.3-2.76-7.6-3.37-7.8-8.24-2-6.69 4.2-10.54 8.9-13.5 2.8-5.02-7.4-5.39-6.6-9.58 5.3-1.72 14.8-2.44 15-10.17-7.1-7.68-20.5-9.03-24.2-19.44 0.6-6.17 9.1-6.39 11.4-11.72 14.5-9.09 26.5-22.46 35.2-36.83 0.8-4.03-4-7.04-7-3.93-12 6.68-27.5 14.09-29.9 29.25-9.1 10.17-24.9 6.2-33.6-2.39-13-9.14-28.7-13.51-41.8-22.43-10 6.1-25.65 7.67-33.83-1.98-0.71-6.48 10.77-10.1 7.06-17.142-2.73-3.038-7.64 2.982-11.24 4.182-15.81 9.74-31.23 20.53-44.89 33.07-2.74 2.29-1.08 6.8 2.66 5.63 5.22-0.47 13.7-3.76 15.44 3.44 6.6 8.46 18.88 1.17 26.91 5.31 2.96 4.28-5.71 10.29-0.01 13.22 3.69 1.28 10.53-2.49 9.07 3.87 0.7 15.95-1.88 32.11-9.06 46.49 18.18 3.99 38.19 5.51 53.19 17.68-10 7.27-22.5 17.3-35.52 11.58-7.49-2.05-15.79 2.02-19.04 9.01 4.73 1.5 7.59 7.45 2.88 10.9-4.63 3.93-9.45 9.21-15.27 10.73-2.01-5.03 1.94-12.36-2.88-16.72-4.79-12.12 13.17-20.75 7.62-32.93-1.95-3.15-5.88 4.67-9.11 3.3 1.97-12.15 4.82-24.62 3.86-37.14-7.37 0.82-18.61-4.7-13.77-13.57 4.97-4.76-2.78-6.77-6.66-8.4-11.2-3.74-23.54-1.86-34.56-5.92 3.59-4.38 10.19-11.85 4.94-17.25-6.81-3.95-16.17 1.64-22.09-3.75-1.63-3.28 0.13-7.91-4.92-7.26-15.51-0.89-28.1 14.48-43.63 10.42-5.52-7.08 5.14-11.82 6.28-18.32 0.3-4.55-2.46-12.21-8.13-11.06-6.12 1.74-10.98 11.95-17.8 6.92-3.13-5.3 4.45-10.69 9.22-10.7 7.02-1.43 15.6-0.99 20.57-7.18-4.39 1.06-11.38 2.08-12.19-4.042-1.1-5.186-1.78-14.662-9.32-13.847-2.34 0.745-3.4 0.643-3.06-2.139-0.67-8.424-10.52-9.925-17.2-8.592-4.81-0.031-11.57 2.464-15.43-0.574-1.6-10.38-13.46-13.823-22.58-12.922-6.71 1.364-10.88-5.749-17.18-7.205-8-3.503-16.82-4.399-25.31-2.914-5.47-0.178-11.18-1.533-16.8-1.334-0.37-0.035-0.74-0.045-1.12-0.033zm-111.76 31.548l-0.54 0.844c-4.7 9.157-16.68 6.427-24.34 2.998-3.54-2.363-6.52-1.043-7.18 3.022-2.68 12.01 7.14 26.34 19.85 26.32 7.97 6.21 6.65 19.53 15.57 24.62 7.62 1.88 9.41-10.31 17.1-7.91 3.72 0.71 12.95 4.95 12.18-2.37-2.53-4.09 0.78-8.35 5.28-8.29 4.1-0.05 12.78 2.4 12.82-4.44-1.11-3.55 4.41-1.64 5.88-4.56 5.23-4.27 4.76-12.567-0.88-16.329-15.11-14.317-38.08-6.949-55.74-13.905zm-59.54 29.984c-5.66 0.38-9.9 7.72-5.66 12.09 9.41 3.92 9.5 18.01 20.24 20.27 6.79 4.37 5.19 14.8-1.9 17.94-3.91 2.27-8.77 2.38-12.94 0.79 1.47 5.51-1.07 15.76-8.62 12.6-5.82-1.91-7.48-8.62-10.17-12.81-3.67-3.12-9.4-0.94-9.52 4.01-1.53 4.21 0.75 12.16-4.68 13.54-6.45-2.97-13.43-6.51-18.39-11.86-1.95-3.55-2.45-8.64-7.53-6.49-8.56 3.75-5.04 19.46 4.37 19.24-4.64 8.63 3.1 16.75 9.52 21.58 4.61 3.41 9.05 10.87 5.05 15.73-14.33-1.42-22.86-16.28-37.14-18-4.78 3.98-1.13 10.29 3.11 12.91 3.73 1.87 6.89 8.61 0.7 9.53-16.78 4.94-39.44-4.63-42.48-23.25 1.68-7.45-8.04-8.91-13.15-6.61-8.07 2.47-18 10.15-25.93 3.85-4.32-4.2-2.98-11.09-4.88-15.68-5.1-4.91-14.66-3.35-18.15-9.66 1.55-7.76-9.25-8.17-11.63-13.58 1.01-4.07 0.32-10.42-5.13-10.48-7.05-0.4-12.2 5.13-15.82 10.39-8.29 5.9-19.89 0.76-28.57 3.86-4.2-7.87-15.68-9.11-21.74-2.71-9.25 5.77-23.49 1.99-30.17 12.32 1.14 7.75 10.39 7.89 16.37 6.93 4.18-0.64 8.53 0.94 11.27 3.7 9.08 0.49 21.09-2.59 27.61 5.58 1.43 2.49 2.19 6.37-1.79 6.81-13.08 5.71-27.19 0.5-40.8 0.65 8.81 13.44 25.64 21.3 29.53 37.84 8.97 5.03 18.91 8.67 29.05 9.72 10.25 6 15.48 18.89 26.48 23.31 8.99 0.22 16.72-7.27 25.75-5.09 1.77 7.74-6.62 15.05-2.01 22.77 3.09 6.31 11.36-1.37 15.15 2.74 6.49 8.89-5.82 20.4 1.4 28.98 6.22 4.9 11-4.42 16.27-6.12 5.78 0.92 3.02 9.4 1.3 12.76-3.09 6.03-7.29 15.59-0.17 20.52 7.57 3.8 14.42-3.17 17.45-9.51 1.37-4.39 10.35-8.94 11.76-2.59 3.65 15.05-13.59 28.3-6.3 43.3 2.29 6.11 10.32 0.66 15.29 0.95 5.11-1.74 14.4-0.7 14.32-7.98 1.24-10.22-9.48-21.09-2.21-30.41 11.21-4.19 18.53-14.8 22.07-25.94 0.87-4.19 7.02-3.13 9.18-6.94 4.91-5.35 4.33-13.87 7.95-19.31 5.66 3.84 1.4 13.14 7.59 17 3.91-6.88 16.02-7.87 17.99 1.1 2 6.36-8.93 7.9-8.52 14.41 0.57 7.95 11.21 8.91 17.32 7.2 9.24-2.23 15.05-12.9 11.4-21.8-7.98-2.98-12.61-13.36-10.85-21.56 2.01-4.36 8.37-2.99 9.45 1.34 6.48 8 18.4 12.41 19.33 23.99 9.48-5.68 16.96 5.22 24.92 8.58 8.3 3.92 14.96-5.07 23.19-4.76 6.13-1.3 15.46-1.25 18.25-7.58 1.67-7.86-1.22-17.26-9.17-20.33-2.93-3.97-0.91-12.8-7.77-13.26-3.42-0.77 0.84-6.89 3.98-4.7 8.48 1.23 18.75 8.83 26.89 2.49 7.61-9.38 0.98-22.27-4.16-31.19-5.55-5.68 3.9-10.09 8.66-9.76 5.94-0.83 14.34 3.76 11 10.83-0.81 8 1.42 20.18 10.97 21.47 6.87-0.57 8.24-9.76 11.62-14.48 2.03-5.57 8.29-6.61 13.07-4.22 8.76 2.16 15.94-5.17 18.08-13.04 2.77-7.41 5.77-16.93 14.59-18.95-3.2-12.39-15.43-19.19-25.68-24.69-14.12-11.04-19.66-32.7-38.7-37.22-2.87-0.72-9.9-2.35-8.95 2.78-0.01 4.82 9.68 5.87 7.5 11.1-7.61-0.14-15.7-3.34-22.99-1.68-9.68 12.89-29.04 6.97-39.06-2.42-6.1-4.92-9.69-12.92-10.3-20.08-11.98-6.57-28.2-7.23-35.69-20.17-1.67-1.75-4.12-2.62-6.52-2.56-0.38-0.04-0.77-0.05-1.15-0.03zm157.25 33.03l0.44 1.17 0.25 0.69c3.21 7.78 5.25 16.23 6.07 24.34 9.19 10.56 24.92 11.19 34.5 21.16 6.97-14.51-2.67-30.7-15.22-38.38-7.71-5.15-16.73-8.52-26.04-8.98zm-101.93 42.96c0.26-0.01 0.53-0.01 0.8 0.01 7.24 0.64 4.19 10.04 5.44 14.87 0.2 2.85 3.48 9.23 5.64 4.57 14.63-17.38 43.05-15.16 59.67-1.88 5.8 4.65 10.03 11.35 11.1 18.77 7.37-2.77 16.39-2.06 23.33-0.07-3.83 8.92-14.83 7.85-22.57 8.34-7.02 2.71-9.78 10.71-14.95 15.28-8.02-5.53-0.82-18.49-9.14-24.18-8.59-4.94-22.48-4.67-27.74 4.78-0.86 10.76 11.76 19.48 6.62 30.2-7.42 6.41-17.47-0.46-26.12 0.58-6.74-0.2-10.02 9.93-4.04 13.36 6.19 7.2 11.92 15.63 13.05 25.3-14.71 12.08-36.06 10.17-51.15 0.15-10.96-6.31-19.61-16.16-28.25-25.01-6.75-3.5-13.82 2.72-13.96 9.61-1.15 7.44 1.45 15.75 8.08 19.7 4.59 5.17-2.77 16.68-8.83 12.56-1.42-5.46 9.35-9.75 4.82-15.38-2.88-1.08-3.98-3.45-5.93-5.67-6.23-6.07-19.57-0.92-22.18-10.99-2.62-4.64-11-2.99-12.34 2.47-2.19 5.71-3.81 12.31-9.77 15.16-9.59 8.15-9.98 24.91-23.42 28.74-10.14 4.81-7.52 17.75-5.82 26.52 1.64 5.43-0.45 12.96-7.46 12.13-7.9 0.21-6.37-11-4.26-15.8 3.3-8.62 8.11-21.02-0.84-28.11-5.18-6.03-13.2-1-17.19 3.71-1.86 1.39-7 8.58-8.13 2.95-0.3-4.39 6.2-6.87 8.23-10.57 7.68-7.94 15.48-16.16 23.8-23.24 7.83 3.72 20.05 7.25 26.48-0.62 3.61-6.31 2.53-15.93-4.94-19.02-4-1.89-7.24-5.55-7.48-9.86-5.69-3.39-1.31-9.75 2.83-12.27 3.26-2.31 5.96-7.54 9.68-2.48 6.48 4.05 15.39 9.36 22.85 5.25 9.84-10.13 7.06-28.99 21.02-35.53 11.21-1.45 15.54-14.72 26.28-16.8 2.84-0.38 8.46-0.2 6.13 4.22-2.17 3.72-1.95 10.72 3.78 10.3 11.5-3.1 12.83-19.55 25.18-21.15 7.79-1.91 13.92-7.76 20.9-10.85 0.26-0.02 0.53-0.04 0.8-0.05zm-239.39 11.35c4.24 3.7-0.29 12.32 5.24 15.86 2.59 1.71 5.97-0.23 7.57 3.09 6.26 5.29 15.07 1.42 20.32-3.42 6.39 4.12 12.23-3.2 18.59-3.11 2.1 8.36-2.88 17.59-11.38 19.77 3.75 3.3 4.45 10.14-1.46 11.2-10.17 3.83-23.16 0.76-31.61 9.01-4.56 2.76-15.57 4.28-15.58-3.43 0.8-3.21 4.22-8.93-0.89-10.41-6.06-1.42-16.72 2-17.25-7.12 0.79-7.78 13.12-11.61 10.11-20.5-3.65-3.91-10.86 1.93-14.48-1.49 0.47-5.76 8.95-5.05 13.25-5.85 6.17 0.04 11.89-1.76 17.57-3.6zm51.75 46.41c0.25-0.01 0.5-0.01 0.75 0.02 5.57 0.57 7.03 9.2 13.27 6.89 5.37-0.98 14.34-6.79 17.78-0.1 0.1 3.56-6.86 9.37-1.57 11.86 4.69 0.19 11.47-1.87 12.55 4.76 1.14 3.94 1.21 8.1 2.51 12 8.05-5.53 16.82 7.03 10.77 13.47-10.01 6.43-21.93-2.83-26.25-11.99-1.25-5.26-7.03-6.97-11.6-4.78-2.78 1.75-10.33 1.47-7.76-3.33 2.81-1.76 10.86-5.27 6.31-8.98-6.99-0.84-14.32-3.64-21.23-1.77-8.11-3.96-5.8-18.34 3.72-17.97 0.25-0.04 0.5-0.07 0.75-0.08zm-90.41 49.3c-12.3 1-12.66 16.96-21.64 22.59-2.83 1.68-6.9 2.53-8.35-1.14-5-4.69-12.78-6.8-19.13-6.53-5.75 3.5 0.09 9.8 2.91 13-6.11 8.94-3.62 22.81-14.21 28.66-2.17 6.72 5.37 10.34 10.76 10.82 5.11-0.14 9.13 5.75 3.99 9.03-7.14 2.67-14.8-0.54-22.07-0.71-9.11-3.79-22.66-3.32-26.67-14.13 1.56-13.02 17.68-21.44 15.18-35.35-1.29-7.68 10.11-12.28 6.6-20.43-7.83-2.63-16.94 7.07-22.97-1.39-4.93-3.53-11.94-1.13-13.55 4.79-2 5.46-4.96 11.04-11.01 12.58-5.59 3.06-14.34 9.77-9.86 16.89 4.57 6.21 14.54 5.62 19.04-0.45 2.85-3.27 9.86-10.22 11.98-2.73-3 9.47-18.06 10.41-19.17 21.27-3.35 6.9-11.22 11.25-13 18.86-11 3.98-23.47-0.32-31.73-7.9-6.26-0.73-16.34-3.11-19.74 4.06-0.7 3.79 1.56 7.92-2 11.07-2.88 2.89-5.1 9.17 0.19 10.83 6.69 2.19 4.13 10.9-0.47 14.05-4.57 4.81-13.34 11.07-9.15 18.75 2.32-1.46 7.01-1.76 4.87 2.1-1.39 3.82-4.35 7.12-0.37 10.07 3.05 9.6-11.32 17.34-5.91 27.08 3.27 6.12 11.33 2.72 16.88 2.27 8.02-1.33 15.07-8.04 16.39-15.95-0.61-4.3-10.15-4.72-6.01-9.69 3.01-3.22 4.69-9.54-0.51-11.62-2.21-11.18 6.74-20.48 6.9-31.5 17.41-1.61 35.62 4.99 52.36-2.65 0.76-10.88 10.21-23.18 22.26-18.82 6.34 14.66 24.72 17.64 38.68 18.94 10.22-6.06 20.82-12.82 33.05-13.42-6.93-10.67 9.08-18.74 6.98-29.41-1.09-5.24-7.64-5.03-10.03-8.76 0.25-7.44 6.11-13.57 10.08-19.53 7.77-5.95 18.07 1.18 26.41-3.13-3.27-6.73 0.05-17.67-7.61-22-3.47-0.94-6.77 0.52-10.35-0.47zm839.23 85.9c18.4 0.01 34.8 11.72 45.1 26.28 13-3.36 26.5 2.71 36.9 10.06 1.2 5.21-7.6 4.97-9.7 8.98-2.5 4.23 0.8 11.07 6.3 10.12 2.5-0.93 10.1 1 4.9 3.92-4.9 2.96-12.1 1.99-15.2 7.64 7.6 6.19 20.7 12.19 19.2 23.87-0.6 6.35-9.4 4.71-13.5 2.99-4.6-1.69-3.3-8.6-9-6.51-8.6-0.1-17-5.91-18-14.77-2.8-4.88-10.5-0.84-13.1-4.9-0.4-3.49-0.4-7.69 3.8-9.02 4.5-1.61 9.4-6.2 6.7-11.35-0.9-9.08-11.6-10.41-17.7-14.09-11.3-12.08-29.1-15.39-40.3-27.05 2.1-4.76 9.1-5.57 13.6-6.17zm-694.8 18.89c-0.3-0.01-0.61-0.01-0.92 0.01-8.21 1.05-13.16 11.15-9.4 18.53 2 5.4 5.81 13.5-0.62 17.56-3.67 3.28-7.15 11.43-13.06 9.44-2.47-4.26-8.65-7.9-12.66-3.31-6.38 6.98-8.62 16.95-13.65 24.49-5.52 0.54-11.88-8.11-17.05-2.59-4.92 8.81-4.48 22.92-15.49 27.14-8.09 2.91-12.04-6.72-12.06-13.19-0.52-10.68 4.24-20.73 3.75-31.42-5.03 6.07-15.33 10.8-21.12 3.01-2.3-3.37-4.58-6.33-8.68-3.63-8.87 4.06-5.74 15.47-4.33 22.86 0.64 4.06 1.48 8.61-0.24 12.66-7.73-3-16.98 1.18-19.04 9.41-2.7 5.86-1.89 13.29-5 18.6-5.73 2.38-7.95-6.52-11.32-9.45-3.13-5.3-10.88-6-14.51-0.76-4.27 2.89-12.46 8.4-16.52 2.88-1.78-8.74 6.27-15.4 6.73-24.08 0.73-6.12 3.86-12.9 4.54-18.22-6.59-6.72-14.92-15.1-25.01-13.63 2.34-6.93 14.15-10.26 11.34-18.99-2.36-5.25-10.28-3.04-15.07-2.55-7.25 1.98-15.09 4.38-21.29 8.12-3.43 5.9 8 10.58 2.06 15.91-12.36 16.1-34.25 20.81-53.56 19.59-5.23 7.18-15.79 10.65-18.46 19.59-0.07 5.5 8.15 4.14 9.93 6.36-1.35 11.14-13.38 15.64-18.5 24.71 7.33 13.42 24.87 12.83 37.95 11.34 6.58-1.15 14.15-0.72 20.09-2.14 2.25-5.05 11.34-12.56 15.65-5.92 1.48 2.64 0.29 7.34 4.53 4.58 8.21-2.43 15.88 7.77 23.84 2.27 9.98-3.67 22.04-4.59 31.8-0.33 5.4 7.86-8.41 16.31-14.83 10.75-6.52-3.75-12.58 3.83-12.31 10.01-0.97 4.53 1.67 8.59 3.01 12.41-0.49 9.22-12.25 6.58-18.46 6.94-6.51-0.66-15.1 2.5-14.6 10.36-1.09 5.14 2.27 2.71 5.39 1.82 6.76-1.43 4.65 8.19 4.56 11.99-0.36 4.36-1.42 11.37 5.02 9.95 24.13 0.78 47.01-17.5 71.06-8.34 6.18 3.56 12.52 8.54 20.29 6.99 7.82-0.39 14.75-5.56 21.72-7.46 12.79 4.43 25.31-10.72 37.44-2.6 7.65 2.78 16.96 1.89 24.92 4.62 15.23 3.25 28.82 11.21 40.9 20.71 2.39 5.5 6.32 11.93 0.32 16.41 20.87 7.15 44.33-5.36 64.15 5.97 4.4 6.19-4.82 15.96 2.63 21.11 8.23 3.71 17.75-0.16 26.31-0.65 7.94-1.74 15.98-1.15 23.9-1.75 7.5-2.5 6.65-12.49 2.63-17.68 4.63-9.07 17.07-4.63 23.73-0.39 3.62 2.12 5.92 7.21 9.92 3.08 9.41-6.26 13.29-19.92 25.43-22.05 1.18-13.12 18.45-20.24 29.65-14.94 4.48 1.31 4.36 9.01 9.59 6.39 14.1-1.79 29.95-2.26 42.36 6.01-10.03 13.84-29.08 9.49-43.8 9.83-4.05 0-8.12 0.28-12.07 1.23 3.01 10.22 17.55 15.26 15.1 26.99-3.4 5.55-15.05 4.9-13.45 13.33 0.52 7.05 5.6 14.91 0.42 21.29-17.98 1.86-36.47-1.58-52.26-10.5-2.23-1.07-8.9-0.87-6.03 2.98 4.32 4.93 13.59 8.04 13.34 15.54-4.59 8.15-14.92 7.26-22.48 4.51-6.9-2.39-14.44-2.17-21.02 0.73-9.95 1.75-9.6 14.01-11.14 21.64 0.13 5.58-7.31 8.28-10.58 4.38-3.1-8.37-6.62-18.22-13.81-23.55-9.8-1.24-13.15 12.16-21.98 12.87-3.08-2.4-1.5-8.53-1.52-12.37 1.31-10.1 6.14-19.58 12.3-27.69-12-1.42-25.51-0.72-35.82 6.04-6.88 6.95 1.15 19.91-8.38 24.95-5.67 3.72-8.79 10.37-13.85 14.4-3.94 1.38-12.35-2.69-13.28 3.64 0.17 5.09 5.74 9.79 2.04 14.99-4.05 6.81-13.77 8.65-20.33 5.23-5.75 1.62-10.29 9.28-16.56 7.03-3.68-4.44 0.82-10.88 1.65-15.81 4.23-10.6 8.4-21.35 10.89-32.44 4.8-9.91 16.06-20.16 11.66-32.24-1.33-3.41-3.89-6.68-6.98-2.85-13.29 8.72-28.73 15.24-38.77 28.07 4.88 16.67-9.29 30.44-20.27 40.8-3.36 4.39-8.34 8.46-14.11 5.5-4.82-2.11-9.98 0.15-12.37 4.64-5.75 5.35-17.9 8.2-16.9 18.07 2.26 5.67 3.28 12.55-1.27 17.53-3.89 6.12-11.89 9.12-15.34 14.84-1.13 14.16-17 18.69-27.25 24.9-3.36 1.29-7.51 5.11-2.84 7.25 4.03 1.89 9.18-2.84 12.5-0.07-8.56 15.22-27.19 21.8-43.65 24.17-8.72 1.53-17.81 1.2-26.39 1.95-9.01 8.39-21.45 20.08-34.75 14.26-6.28-4.22-11.55-15.02-20.71-11.96-3.76 1.22-9.63 5.83-5.18 9.69 2.01 2.51 7.34 3.31 7.76 6.41-3.55 3.24-8.42-1.24-12.73-0.4-15.16-0.72-30.42 5.24-45.26 0.42-12.22 0.43-12.29 19.45-24.81 18.86-11.656 2.96-13.872 16.87-22.018 24.14-6.842 6.84-18.639 14.33-15.625 25.74 2.005 8.98 11.807 19.12 21.605 15.49 5.796-3.46 6.552-11.5 12.728-14.8 12.41-9.07 29.57-8.16 41.82-17.24 2.86-4.5 2.23-12.44-4.34-12.74-8.14-1.66-17.79 3.54-24.69-2.03-3.23-9.36 9.93-12.49 16.57-13.16 5.5-0.38 11.93-1.06 16.96-0.86-1.07 5-10.15 8.17-6.34 14.09 11.5 8.5 26.1 2.19 36.92-4.11 7.66-3.91 17.03-8.42 25.65-5.97 3.51 7.69 0.33 17.97-8.47 20.04-5.64 1.91-11.72 1.96-17.59 1.39-3.49 17.32-26.2 28.75-40.83 17.06-10.56-8.4-27.09-1.08-32.79 9.58-1.11 6.02 6.71 5.62 10.59 5.31 4.47 0.7-2.43 4.93-3.57 5.88-13.215 9.21-29.634 13.81-45.46 14.69-2.864-3.83 0.61-12.37-5.927-13.72-9.561 1.78-8.847 15.41-17.079 18.77-5.293-0.49-12.666-1.52-15.22 4.69-3.537 8.95 1.226 21.35 10.627 24.35 7.358-0.8 2.409 7.6 4.523 11.5 1.641 4.9 5.496-2.3 8.635-3.1 5.237-4.1 12.669-4 17.703-7.8 4.162-5.5-5.242-7.7-7.297-11.4-0.497-4.61 6.898-4.78 9.731-6.68 10.735-4.11 23.617-4.43 32.794-11.67 9.45-11.97 25.09-15.57 38.87-20.01 1.86 21.87-25.51 40.86-44.909 29.5-16.462 16.46-35.447 31.36-46.73 52.26 2.374 5.8 7.905 9.8 11.35 14.7 4.08 0.5 7.837 3.6 5.636 7.9-0.875 9 11.67 9 14.86 15.3-0.062 6.4-5.645 13.2-2.907 19.6 4.057 3 9.146-3.5 13.502 0.1 8.568 5.5 7.678 17.9 12.328 25.4 5.99 3.7 8.85-6.4 13.46-6.8-1.44 5.9 5.57 9.2 10.34 6.7 4.64-1.4 8.79-4.5 11.79-8 11.01-0.8 17.52-10.8 24.18-18 5.38-1.6 13.87 4.5 17.31-2.5 6.69-3.3 10.02 5.7 12.14 10.5 2.37 6.6 9.86 9 16.22 6.9 19.84-2.6 42.5-13.3 47.5-34.5 2.5-6.2-2.47-15.3 4.63-19.4 6.86-4.6 14.57-0.4 21.81-0.7 9.71-1.9 13.08-13.7 22-16.8 9.67-18.3 22.21-39 43.29-45.5 4.84-1.2 9.97-0.8 14.7 0.7-0.98-18.24 15.69-31.29 28.16-41.42 9.64 2.9 6.87 15.35 6.61 22.89-0.67 6.67 9.71 8.06 14.26 4.63 10.38-7.42 10.26-22.54 20.27-30.16 11.9-13.55 13.51-32.55 19.62-48.72-4.99-20.24 9.99-40.23 27.52-48.77 8.06-1.78 9.1-11.72 15.7-16.07 3.8-3.31 13.61-9.05 15.46-1.24 1.5 4.7-0.76 11.17 2.43 14.83 11.56 3.3 21.55-6.56 25.69-16.12 11.54-2.98 14.32-16.12 21.8-23.57 6.18-5.17 18.89-0.9 16.42 8.2-1.34 11.36-0.84 22.97 1.97 34.08 7.14-4.03 15.55-6.17 23.72-4.71 6.26-11.71 9.99-27.99 24.78-31.59 12.31-3.53 16.8 16.29 29.25 12.9 8.12-2.45 15.22-8.03 18.18-16.22 3.82-9.53 8.96-22.42 21.39-22.01 18.16-2.34 36.7-1.59 54.86 0.11 22.26-7.82 30.84-32.08 41.44-50.86 2.67-9.68 15.63-9.01 20.18-1.42 1.31 5.69 4.78 3.73 9.13 2.55 8.59-2.14 17.69 0.34 25.13 4.3 11.74-2.22 24.22-10.94 36.13-5.13 3.08 2.23 7.42 6.39 3.69 9.95-4.46 11.49 7.91 19.79 13.07 28.2 4.5 5.95-1.52 12.16-6.88 14.65 5.5 6.74 15.96 9.48 23.06 3.43 12.67-8.62 18.81-25.59 34.1-30.25 3.7-0.42 9.69 0.29 9.38 5.17 4.31 14.58 17.98 23.39 27.09 34.61 6.67 4.51 14.11-1.45 17.11-7.44 3.8-6.48 9.2-15.23 18.3-11.95 7.9 1.88 13.9 7.81 19.3 13.46 13.3-8.18 13.6-26.49 8.5-39.62-1-10.82 11.4-15.37 17.6-22.19 7-4.78 2.1-13.21-0.5-18.99-3.3-5.75-4.6-14.1 2.4-17.67 11.7-8.73 33.8-6.68 38 9.22-0.3 6.62 1.6 13.32 6.7 17.95 4 3.1 6.5 8.59 2.1 12.61-4.9 5.54-14.7 11.52-11.2 20.31 6.8 8.32 18.1 11.3 24.9 19.66 10.8 7.33 22.8-9.44 33.4-0.88 6.5 1.36 13 5.69 14.1 12.97 1.7 6.22 1.8 12.64 2.6 19.02 14.5 1.95 25.6-15.72 40.3-9.51 13.4-16.57 13.8-39.57 25.6-56.85 5.3-5.36 13.8-3.27 18 2.45 5.2 4.94 10.5 12.81 18.2 13.11 6-4.08 4.2-16.1 13.8-15.01 12.9 0.19 16.3 14.98 23.5 23.04 5.3 7.49 15 8.96 23.4 7.83 6.8-1.51 11-9.95 18.4-8.69-6.4 35.96-42.2 65.94-79.4 61.67-12.1 3.95-15.4 17.98-14.3 29.26 0.1 6.67 1.1 13.56-0.1 20.12-2.7 1.36-7.8 3.61-5.8 7.58-8 4.17-14.2 11.32-21.8 15.43-1.9 9.75-14.8 10.46-17.8 19.63-9.5 8.31-20.4 21.13-15.6 34.48-5.8-0.96-12.2 7.99-16.9 1.65-2.1-4.01-6.7 2.74-4.2 5.63-5.8-8.14-16.8-1.37-24.7-3.86-1.9-1.99-5.4-8.99-8.3-5.07-0.2 2.09 0.4 4.39-1.5 1.12-0.6-3.88-0.9-4.35-5.4-3.73-5.2 0.04-4.9-6.19-4.1-9.81-1.8 1.44-4 7.12-6.3 6.53 1.2-3.54 1-5.55-3.2-6.62-19.2-9.82-35.4-24.87-52.6-37.73-10.7-5.42-21.3 3.06-28.5 10.46-5.5 5.47-13.3 10.55-21.3 7.65-13.6 1.45-29.8-1.54-38.7-12.95-14.84-8.3-33.94-6.83-46.55-19.15-23.66-5.56-43.02-25.18-68.26-25.34-10.11-12.76-24.06-21.55-36.15-32.2-24.77 6.18-36.6 31.44-53.66 47.87-5.96 4.48-5.53 13.12-10 18.9-4.8 8.25-9.6 17.29-9.02 27.06-5.34 22.28-5.59 45.91-2.3 68.35 9.86 19.9 1.58 43.6 9.87 64.1 4.55 5.9 10.71-1.4 14.51-3.9 8.18 4 14.59 14.1 8.93 22.8-8.37 20.1-16.36 41.4-13.55 63.6 2.2 56.9 14.78 112.8 32.05 166.8 17.9 64 52.62 121.5 86.74 177.8-17.62-6.8-33.89-18.3-53.12-20.6 17.96 25.4 36.83 50.8 50.12 78.9-30.43-3.2-51.12-28.2-76.78-42.1-17.42-10.7-35.76-20.7-55.95-25.1-10.24 27.2-31.2 50.9-32.92 80.9-1.7 4 1.34 10.6-2.96 12.9-13.73-30.7-23.1-64.1-20.74-97.9-1.5 2.1-4.31 3.8-4.32 0.1-2.68-15.3-6.89-31.1-17.73-42.8-2.5-2.9-5.12-5.7-8.33-7.7 3.11 10.3 13.01 21.3 5.8 32.2-12.97 26.9-19.07 56.3-26.93 84.8-4.79-1.9-4.37-9.5-6.89-13.5-5.49-13.9-11.91-29.9-5.8-44.7-9.75-3.8-10.96-16.4-15.35-24.6-3.49-7.4-7.16-19.4-17.16-19.5-5.36 0.7-10.23 4.7-12.54 9.4 4.49 0.2 9.47-8.8 13.11-3.2 5.91 11.7 13.26 23.6 15.04 36.6-9.34 7.6-22.79 10.1-29.49 21-26.43 29.4-61.01 50.6-90.1 76.4-7.4-23.9 8.4-48.6 1.7-72.8-2.61-17.1-2.38-34.6-4.16-51.8-41.42 13.5-79.08 35.9-116.22 58.2-7.23 3.7-15.64 6.7-23.79 4.5 36.58-48.3 68.26-102.7 78.33-163.2 40.46-94.5 47.62-198.9 47.01-300.5-31.19-0.2-59.98 14-90.08 19.5-57.83 15.5-111.15 49.3-147.19 97.4-45.43 56.8-64.81 128.8-78.48 198.9-9.29 49.3-14.78 99.5-16.56 149.6-0.9 39.9 0.99 80.2 10.04 119.1 17.34 54.9 64.52 95 115.69 117.9 37.3 16.6 77.58 25.4 118.14 28.9 43.06 3.9 85.67 11.8 128.91 14 84.67 5.5 169.59 4.2 254.37 6.6 104.08 0 208.04-13.7 309.12-38.3 42.8-11.5 88.1-20.3 125.3-45.8 38.7-31.8 56.6-80.9 69.5-127.7 15.7-78.1 12-159.5-6.3-236.8-13.1-52.2-30.6-104.7-63.4-148.2-35.2-47.5-81.7-86.4-133.7-114.4-69.9-35.3-150.05-40.5-227.06-40-20.82 0.3-42.07 0.4-62.61 1.4-5.13-5.8-7.53-13.8-11.06-20.7-6.25-14.1-8.92-29.2-10.98-44.39-4.64-14.88-2.34-30.97-1.19-46.27 2.18-21.85 10.57-42.84 24.11-60.38 10.91-14.9 23.28-29.3 34.92-43.48 8.63 1.67 7.29 15.99 16.86 16.82 8.36-1.01 9.97 10.13 5.53 15.42-5.7 4.72 0.46 13.23 6.86 13.06 7.28 0.85 13.75-3.82 20.36-5.16 8.82 0.99 22.36 2.45 24.54 13.13-1.85 6.54 6.52 7.75 11.27 6.18 3.05-0.56 6.71-3.6 7.5 0.7 4.63 7.82 17.78 0.3 21.14 9.05 0.61 10.14 15.02 18.29 22.39 9.66 2.44-6.08 11.45-2.09 12.14 3.52 2.29 7.79 1.58 19.15 9.92 23.29 8.06-0.54 14.96-6.52 22.76-6.8 7.4 6.48 17.6 8.46 27.1 8.47 3.5-13.56 16.9-21.13 22.4-33.48 5-4.89 13.7-1.86 15 4.76 5.6 11.84 16.8 19.42 27 26.79 10.1 10.53 19.6 22.76 33.3 28.59 11.7 15.99 37.1 7.51 48.5 23.82 8.9 2.6 15.1-9.27 23.8-5.3 17.5-4.45 21.5-28.56 11.9-41.94-2-3.32-8.5-5.63-4.3-10.01 5.7-4.55 13.1-7.18 16.9-13.78 14.4-15.48 38.8-22.93 45.8-44.66 3.7-13.55-8.9-26-5-39.32 6.3-8.27 16.8-1.03 25.2-1.22 8.8 0.74 18.1 1.72 25.8-3.77 17-9.66 28.6-26.34 39.3-42.21 3.8-7.87 0.3-17.78 7.5-23.99 4.9-7.17 15.4-13.62 23.2-6.74 5 2.07 10-4.86 8.3-9.91-1.6-8.47-6.3-17.6-2.5-26.01 3.9-6.05 12.8-7.05 16.5-12.46-1.4-13.4-16.1-23.27-11.6-37.55 2.4-9.58 13.7-18.71 8.3-29.28-4.5-7.21-16.4-8.62-21.4-1.05-4.1 5.64-7.9 12.49-8.8 19.11 2.4 8.51 10.6 16.61 7.1 25.85-8.8 2.2-13.1-8.49-18.3-13.4-3.4-4.82-10.9-8.84-15.6-3.42-5.3 3.93 2.7 8.56 5.1 12.22 4.8 5.42 12 11.92 10.7 19.52-6.5 8.3-17.7 2.25-24.2-2.69-6.9-6.14-15.4-10.06-24.7-10.2-11.2-1.19-25.4-0.3-32.9-10.57 9.3-7.27 21.7-2.99 31.2 0.74 4 0.09-3-3.77-3.1-6.36-1.8-4.34-3.5-13.79-10.3-11.39-4.4 3.28-10.2 5.7-15.5 2.2-7.7-4.93-16.3-8.8-23.8-13.93-12.8-10.15-21.4-29.18-39.7-30.12-3.1 0.38-6.1 0.73-6-3.44-0.5-4.39-3.5-11.77 3.3-12.17 21-5.31 37 18.55 58.1 13.68 7.2 3.22 11.4 14.98 20.8 12.13 7.2-0.75 7.2-10.97 13.4-12.6 4.9 3.13 11.3 5.02 16.7 1.67 8-3.67 13-15.52 5.6-22.19-5-11.79-19.6-12.15-30.4-12.61-6.3 0-12.5-2.9-17.3-5.69-10.8 3.66-22.6 7.69-33.4 8.71-9.6-11.81-23.1-20.92-38.4-22.75-5.8-3.7-5.8-15.34-14.4-14.67-11.6 1.72-14.1 15.1-15.8 24.57-1.2 6.55-5.2 14.3-12.6 14.74-7.1-4.45-8.4-17.64-18.8-16.97-6.7 2.4-13 6.61-17.2 12.47 7.4 11.54 25.9 7.06 32.4 19.26-9 11.23-24.9 6.89-35.7 0.97-8.4-4.67-17.7-8.21-26.4-11.54 1-4.11 8.6-6.33 6.6-10.88-8.9-6.73-20.9-3.64-30.7-4.35-13.7-9.39-28-20.86-32.6-37.66-7.3-11.09-22-9.56-33.2-7.31-9.4 2.12-19.5 0.86-26.9-5.59-1.9-1.56 0.6 2.28 0.4 2.76 7.6 11.67 23.2 8.39 34.6 6.52 8.9-1.99 20.7-0.2 23.5 10.05 0.8 12.08 13.5 17.15 19.7 25.93 2.2 2.93 2 6.93-2.2 7.73-13.6 4.23-24.6-9.22-37.7-10.28-5.8-2.62-6.2-14.41-14.3-12.77-13.6 6.53-31.78-1.75-43.42 9.87-3.52 3.74-0.52 10.04-2.89 13.51-12.34 5.61-31.06 7.64-39.94-4.94-3.35-6.3-3.22-15.6-11.22-18.44-10.24-4.84-24.42 1.3-32.32-8.4-1.37-7.1-10.05-6.65-15.2-3.98-6.48 3.56-13.59 6.95-21.09 4.74-10.07-0.12-18.33 7.13-26.54 11.61-5.78 12.99-5.82 29.27-16.33 39.48-11.09 5.46-22.94-1.88-32.97-6.54-10.83-8.99-0.55-27.27-12.38-35.74-7.04-3.79-15.49-3.07-22.85-6.31-7.93-2.53-16.92-3.14-24.4 0.96-12.66 2.46-25.44-2.49-37.59-6 5.22 9.59 17.79 6.99 25.64 12.16 1.23 3.36-2.59 7.58-5.83 4.6-10.66-2.73-22.33-2.4-32.95-1.31-5.29 3.46 0.37 9.2 2.83 12.46 0.71 3.06-5.17 1.63-6.93 2.62-8.75 1.21-18.77 8.21-27.24 2.99-2.9-4.91-3-1.75-5.71 1.82-3.58 3.28-9.02-0.28-9.18-4.67-3.68-0.84-8.99 1.07-11.12 1.36 2.67-2.99 3.29-9.37-2.08-8.14-10.75 0.29-20.61 8.56-31.4 6.11-3.72-0.94-2.95-12.38-5.4-5.42-0.31 4.63-0.6 12.01 5.15 13.48-8.94 6.7-18.49 13.35-29.76 15.03 1.17-7.41 3.66-17.36-3.71-22.52 2.72 9.48 2.34 21.04-5.9 27.82-5.52 5.21-13.34 2.95-19.22-0.19-10.76-3.11-22.19 5.92-32.35 0.35-2.9-1.86-5.16-12.57-5.65-4.48 0.08 4.31 5.39 11.64-0.44 13.82-10.61 3.13-14.68-8.12-21.42-13.89-7.62-14.82-25.73-20.88-41.31-23.59-12.34-2.48-25.17-3.84-36.62-9.43-12.07 10.21-30.6 2.52-42.54 13.19-12.43 5.65-22.94-7.9-35.21-8.18-22.23-4.9-42.1 14.24-64.05 9.76 0.48-6.5 4.51-17.43-3.74-20.93-3.08-1.45 2.9-4.99 5.1-4.47 7.49-0.69 18.68 2.85 23.14-5.44 1.76-7.08-3.55-14.61 0.39-21.29 24.79-2.26 51.96-10.01 66.89-31.48 5.6-3.9 12.08 0.38 13.29 6.4 2.27 5.98 4.36 17.27 13.2 15.56 6.55-2.02 9.55-9.76 16.14-12.35 7.23-4.81 16.25-4.66 24.35-4.26 17.56-8.03 18.08-31.98 33.88-41.92 4.33-2.25 12.24-2.2 14.84 1.83 0.57 9.69-10.41 17.63-7.31 27.2 9.72 13.69 29.74 19.89 33.12 37.76-0.27 3.4-1.36 17.63 2.16 8.89 2.63-32.29-6.2-64.22-15.75-94.76-1.35-9.69-3.89-23.34 5.77-29.67 10.41-1.4 11.68-15.73 5.17-22.16-2.78-3.42-6.75-6.56-11.3-6.74zm288.52 52.74c3.72-0.18 11.38 2.68 7.8 6.24-6.12 0.82-13.31-5.25-18.45 0.66-4.68 3.29-6.79 12.12-13.36 11.29-3.94-1.86 0.21-6.99 1.4-9.68 4.57-8.25 13.71-8.08 21.93-8.43 0.21-0.04 0.44-0.07 0.68-0.08zm136.31 110.4c4.42 0.03 3.82 6.38 7.74 8.14 9.47 6.51 22.68-0.91 31.81 5.87 6.2 7.14 5.63 19.32 15.18 23.71 10.09 9.46 24.6 3.06 35.82-0.19 2.78-1.55 9.29-0.12 9.39-2.57-1.79-4.84-7.7-12.4-1.23-16.1 13.66-3.14 28.66-0.21 41.96-3.7 5 14.05 21.9 16.15 34.2 20.18 11 1.34 10.3 18.34 21.8 18.85 14.5-3.51 27.4 5.97 39.4 12.68 4.8 2.67 10.5 4.66 15.8 5.45-6.9 7.41-18 4.13-26.2 1.05-20.9-5.52-42.6-1.2-63.8-1.41-4.7 11.33-18.9 11.7-29.3 10.84 5.8 8.76 18.3 15.68 16.5 27.58-2.8 10.15-17.2 10.34-24.7 5.52-9.8-4.44-17.23-14.01-27.56-16.71-10.92 0.1-21.17 4.58-30.55 9.57-14.86 2.56-32.87-7.03-46.05 3.91-8.47 11.09-23.48 12.22-33.83 20.84 4.69 7.15-2.24 14.78-9.17 16.53-5.33 2.65-12.01 1.02-15.42 6.53-9.54 7.25-21.85-0.06-31.45-3.49-10.29-10.59-25.91-11.42-38.96-16.51-8.23 9.28-27.98 5.76-28.5-7.98-0.15-8.77 11.3-9.17 17.57-7.74 7.92 1.59 17.72 1.78 22.86-5.66 5.65-4.2 13.98-4.03 18.63-9.57 8.99-0.94 21.48 4.78 28.21-3.84 1.64-3.71 6.7 1.31 9.75 1.07 10.36 2.86 21.93 4.96 32.14 0.4 2.8-6.6-1.8-13.7-8.54-15.12-6.29-2-13.52-3.95-16.6-10.46-3.88-5.27-13.3-8.82-11.9-16.47 12.24-2.9 25.2-0.44 36.94 2.81 7.59 9.58 21.01 6.39 30.82 2.83 7.12-2.2 14.91-4.39 22.23-1.74 1.97-5.74-0.51-13.48-7.38-13.88-7.75-1.66-17.39 2.1-23.68-4 4.3-8.93 3.7-23.92-7.32-27.52-5.61-1.6-15.64 0.94-13.52 8.4 1.48 4.35 10.12 5.85 6.83 11.34-5.92 0.27-12.88 1.39-16.31 6.85-12.56 1.41-24.71-3.55-36.65-6.02 1.43-6.24 9.57-7.01 13.58-11.4-2.72-5.74-10.6-6.79-12.74-12.8 7.75-3.5 14.81-12.72 24.15-8.42 9.94 2.07 17.61-7.18 27.09-7.56 0.35-0.06 0.66-0.09 0.96-0.09zm-292.1 32.97c4.3-0.01 8.7 1.03 13.09 0.75-5.21 2.06-12.26 4.3-17.18 0.27 1.14-0.92 2.7-0.97 4.09-1.02zm-364.17 4.54l-1.19 0.4-0.13 0.04c-16.21 5.48-32.16 12.83-45.16 24.15 4.76 2.57 4.14 8.48 0.32 11.61-3.38 2.7-3.98 8.54 0.72 10.17 3.8 0.7 6.53 4.61 2.87 7.71-3.7 4.79-10.28 11.28-6.12 17.76 9.1 2.28 17.76-3.58 26.82-2.13-3.02 12.75-17.93 15.01-28.91 13.29-9.3-1.45-18.88-1.89-28.16-3.28-7.98-3.64-9.54-17.49-19.96-16.49-3.82 0.46-7.17 2.06-6.44 6.21-3.07 8-16.96 9.58-15.48 19.83 1.61 7.56 11.99 5.7 17.04 2.64 3.21-0.94 6.34-5.08 9.3-4.76 6.27 5.87 8.3 15.55 15.38 20.44-2.06 6.1-9.48 11.95-5 18.9 2.72 5.85 10.74 1.52 13.62-0.15-3.32 7.21-11.06 11.03-14.82 17.99 13.77 1.63 25.8-6.99 38.71-9.3 7.62 1.18 4.35 10.94 5.29 16.25-0.67 7.58 8.89 14.09 14.95 8.55 8.01-6.09 9.98-20.37 21.58-21.2 25.39 0.39 45.94-22.3 71.6-17.98 8.03-0.54 14.33-7.66 18.07-13.76-1.06-7.26-10.06-6.15-14.89-3.59-5.39 2.99 1.01-2.83 1.18-4.94 1.96-5.65 6.44-10.58 12.43-11.26 7.59-9.31 10.83-21.15 16.36-31.64-10.92 2.52-21.31 11.22-32.81 8.25-1.7-9.55 13.79-13.32 11.57-23.37-4.84 1.14-9.67-2.42-8.74-7.54 0.74-6.52-3.27-15.22-11.13-13.54-18.93 0.38-36.03 12.19-54.85 11.57-2.6-3.18-3.2-9.17-8.22-9.6-0.02-7.28 7-13.65 4.2-21.23zm-131.83 18.17c-0.16 0-0.31 0.03-0.46 0.07-9.454 4.93-19.072 10.42-26.802 17.77-6.346 8.56-1.106 22.8-11.629 28.68-4.318 5.77 0.79 15.34 7.973 15.29 15.673 2.32 26.051-13.69 40.768-15.51 2.96-3.84 5.13-11.91-1.44-13.34-5.29-1.08-14.034-1.2-13.097-8.89-0.426-8.22 8.707-14.3 7.497-22.4-0.5-0.99-1.72-1.74-2.81-1.67zm785.8 16.34c-5.31-0.08-10.23 6.94-5.47 10.99 5.38 4.67 12.79 6.6 17.22 12.38 6.28 3.9 16.11 7.59 22.67 2.54 3.07-3.91-0.4-9.03-4.55-10.28-8.75-6.19-17.12-15.87-28.81-15.52-0.35-0.07-0.71-0.11-1.06-0.11zm-437.01 2.82c-0.34-0.02-0.67-0.01-0.96 0-7.85 0.16-14.21 7.83-22.13 5.55-6.94-6.04-18.05-4.6-23.36 2.9-4.58 4.95-5.65 11.78-6.09 18.14-2.8 4.68-12.45 7.8-8.71 14.67 2.46 4.77 9.13 0.32 13.37-0.15 9.14-2.85 17.96-8.15 23.09-16.45 11.7-3.58 24.83-9.33 30.33-20.97 0.07-2.81-3.15-3.62-5.54-3.69zm32.18 0.52c-9.22 0.78-14.08 11.77-23.8 10.85-8.64 2.01-10.4 15.99-1.52 18.85 5.55 1.67 10.43-2.32 15.68-3.29 7.78-4.2 16.47-11.82 16.12-21.41-0.54-3.04-3.6-4.81-6.48-5zm-257.47 33.21c10.1 2.22-0.44 18.2-7.21 10.95-4.07-6.17 1.11-11.11 7.21-10.95zm685.78 32.63c0.43 0 0.87 0 1.31 0.03 18.41 1.75 27.35 24.56 46.4 24.2 4.01 0.1 7.82-2.75 11.04-3.81 5.09 4.47 10.6 9.29 14.11 14.88 1.03 7.49-9.39 6.28-14.11 6.47-15.35 0.78-28.12-9.83-41.71-15.49-5.26-1.66-11.1-6.14-16.69-4.36-1.98 3.67 6.58 5.39 5.26 7.72-14.42 4.61-29.86-3.23-40.3-12.51 1.21-7.11 10.82-4.27 15.79-4.5 3.37 0.71 9.08-1.53 4.12-4.75-3.29-6.23 6.42-8.39 10.88-7.37 1.28-0.31 2.59-0.48 3.9-0.51zm-167.46 9.25c7.54-0.03 14.67 2.64 21.47 5.53 4.5 0.9 14.24 0.21 12.7 7.38-3.99 8.99-15.91 10.81-24.85 10-6.11-1.05-13.73-1.09-18.52-4.62-4.95-8.47-16.58-3.96-24.23-3.53-4.42 1.21-10.83 0.04-7.64-5.8 4.83-7.01 13.86-8.25 21.75-7.97 5.96-0.39 11.86-0.99 17.81-0.94 0.5-0.03 1.01-0.05 1.51-0.05zm610.75 12.24c7.6 2.53 6.4 15.81 15.5 16.61 9.1-0.06 7.1 18.52-1.7 14.89-13.3-4.63-26-15.76-27.8-30.04 4.7 0.48 9.3-0.95 14-1.46zm-1086.4 39.54c-0.47-0.02-0.94-0.01-1.41 0-16.11 0.73-25.12 16.33-36.43 25.5-4.2 3.27-2.12 9.66 2.97 10.36 9.63 2.76 20.01 0.58 28.49-4.42 11.1-3.86 27.23-3.92 32.11-16.92 2.25-5.15-8.01 1.63-11.48 0.61-5.19 1.81-11.16-2.28-8.97-7.88 0.35-2.97 3.93-7.08-1.07-6.81-1.39-0.26-2.8-0.41-4.21-0.44zm502.21 46.8c-1.4-0.02-2.76 0.12-4.09 0.76-24.5 7.95-48.85 19.04-67.5 37.16-6.21 14.51-2.77 31.58 5.58 44.49-9.28 17.86-11.94 43.24 3.94 58.32 3.04 3.17 9.68 7.35 4.62 0.18-6.96-11.52-17.05-25.61-10.39-39.57 1.66-8.36 11.13-17.76 4.37-26.17-5.62-10.65-4.09-22.9-3.22-34.45 16.44-8.03 28.17-24.56 46.7-28.07 7.51-3.42 15.06-7.45 21.41-12.58-0.48-0.04-0.95-0.06-1.42-0.07zm-557.79 7.17l-0.59 0.58c-6.79 6.36-14.43 13.68-14.9 23.56-6.53 9.91-19.69 4.03-29.36 4.94-7.19-0.51-11.05 7.2-9.05 13.45 0.92 4.47 8.09 0.95 11.96 1.26 10.03-0.91 20.64-4.62 29.96-5.27 9.39 14.32 33.55 13.19 41.6-1.94 7.51-8.37 23.24-10.97 24.87-23.84-0.08-3.09-5.9 0.03-8.76-1.13-7.59-0.46-14.6-4.78-21.44-7.13-8.31 4-16.76-1.31-24.29-4.48zm152.15 51.15c5.3 0.23 0.35 6.95 1.02 9.98-1.68 11.77-7.5 26.76-21.23 27.83-2.37 6.49-7.38 14.96-15.06 14.13-1.92-7.15-0.9-19.41-10.33-21.45-3.71-0.14-4.15 6.51-7.88 8.31-2.75 3.69-10.54 5.59-10.56-0.98 0.3-3.95-0.44-5.11-4.34-4.61-6.6-2.7-1.35-14.28 5.36-12.49 7 0.06 17.82-0.98 18.66-9.87-0.6-2.49 1.36-3.11 1.97-0.55 0.35 4.17-0.5 12.8 6.16 11.77 7.39-0.17 9.18-8.05 10.24-13.85 1.95-2.75 3.7-8.24 8.22-6.38 3.64 1.38 8.65 2.13 11.19-1.45 2.2 0.01 4.38-0.46 6.58-0.39zm157.03 6.61c-0.45 0-0.9 0.01-1.34 0.03-7.69 0.01-14.53 4.82-18.01 11.53 13.38-8.99 36.53-5.01 41.17 11.84 0.66 3.58-0.35 7.24 3.93 8.26 13.38 8.87 11.15 27.2 13.45 40.98 4.36 11.99 19.33 11.26 28.98 15.54 3.14 3.51 7.3 12.76 13.01 8.59 4.64-9.93-1.53-25.84-13.88-24.9-7.08-0.93-19.18-2.71-18.71-12.07-1.07-3.71-2.06-9.03 3.12-10.55 4.97-2.28 10.43-3.58 14.76-7.12-7.92-0.27-16.2 1.4-22.63 6.26-6.03-15.23-17.99-27.23-25.37-41.64-4.97-4.54-11.8-6.74-18.48-6.75zm-457.38 5.2c-10.899 3.51-22.533 6.8-32.234 12.65-3.896 9.93 7.282 20.87 0.762 30.04-3.827 2.25-8.941 4.61-8.874 10-0.31 7.24 4.305 17.05 12.471 17.13 4.748-0.54 5.136-6.45 7.324-9.09 13.588-6.07 13.506-23.83 23.799-33.04 3.168-4.57-1.996-8.89-6.552-8.44-2.065-0.23-8.374-0.33-3.696-2.71 5.446-3.1 13.175-6.52 14.35-13.31-0.563-3.28-4.811-3.24-7.35-3.23zm206.8 16.19c5.39 0.99 13.82 8.48 9.47 14.24-5.19 5.49-13.05 5.96-19.93 3.41-7.17 0.32-3.42-8.04 0.25-10.63 3.25-2.42 6.49-5.75 10.21-7.02zm144.67 4.5c8.23-0.09 17.16 4.84 17.2 13.88 0.65 3.47 2.75 11.89 7.8 8.84 0.55 11.39-8 22.26-15.44 31.05-4.63 5.23-9.37 11.41-13.38 16.58-5.9-6.49-11.25-18.32-21.93-16.22-13.19 8.56-24.15 20.59-31.23 34.65-23.22 3.17-37.71 23.81-50.47 41.31-6.84 8.2-13.3 18.2-23.25 22.7-9.5 1.9-22.92-1.4-28.5 9-6.33 11-2.6 27.9-15.11 35-11.2 7.1-26.25 16.5-39.46 8.9-5.16-12.3-20.48-15.1-31.96-11-10.34 2.7-19.22 9.2-28.11 14.4-5.35 0.8-9.68 6.8-15.04 5.9-1.34-5.3-0.32-11.4-3.76-16.2-3.22-6.1-9.35-15.5-2.53-21.3 3.82-6 7.37-14.6 16.07-13.5 13.45-3.2 18.15-18 19.79-30.1 1.83-4.8 0.4-12.1 4.49-15.4 10.63-3.6 19.1 11.5 29.93 6.4 8.47-13 0.34-31.86 12.22-42.97 6.56-1.49 6.26 10.19 13.13 9.1 2.58-3.16-0.12-10.45 0.84-15.45 0.46-4 1.01-9.79 4.37-11.94 6.85 2.97 4.25 12.29 8.18 17.7 7.48 18.66-5.71 36.86-15.29 52.06-3.02 4-4.91 7.6 0.87 4.5 3.31-1.3 7-7.6 10.36-4.3 3.05 8.3-4.49 15.1-6.44 22.8 6.86-0.8 9.81-8 15.26-11.3 5.43-6.3-5.99-14.5-0.58-20.3 7.78-3.7 20.04-5.4 21.28-15.9-10.42-11.87-0.65-28.57-6.25-42.11-0.93-5.7 1.17-13.21 7.18-15.15 0.06 13.42 4.89 27.12 11.61 38.19 18.59 4.09 36.1-14.43 35.05-32.51 1.05-1.98 4.48-3.76 4 0.16 1.14 6.09-3.79 12.33 0.86 17.56 3.64 7.02 12.83 14.03 20.59 8.87 14.2-4.4 13.3-22.84 24.19-30.93 9.69-10.43 21.08-19.56 33.86-25.69 7.29-8.91 9-24.23 21.88-26.94 2.03-0.16 4.06-0.27 6.09-0.25 0.54-0.05 1.09-0.08 1.63-0.09zm155.48 67.79c-14.48 0.08-21.6 20.15-12.89 30.9 4.33 5.9 12.11 5.6 18.37 3.3 6.35-1.1 17.05-4 15.15-12.57-3.63-7.25-6.66-16.01-13.86-20.52-1.65-0.82-3.51-1.18-5.34-1.05-0.49-0.04-0.96-0.06-1.43-0.06zm616.91 3.2c0 0.01 0.1 0.07 0.2 0.21 1.7 2.22-0.4-0.27-0.2-0.21zm-1072.8 39.4c12.49-0.1 8.11 21.1-2.94 18.8-4.96-1.6-9.47-8-15.446-4.9-8.779 3.6-12.301 16.8-22.883 15.9-5.508-0.9-0.782-8.2 0.622-11 9.19-11.6 25.17-13.8 38.247-18.7 0.79-0.1 1.6-0.1 2.4-0.1zm663.49 29.9c8.05 3.9 7.34 16.5 3.01 22.9-2.55-0.1-3.87-5.9-4.27-8.8-0.5-4.7 0.11-9.6 1.26-14.1z" transform="scale(.8)" fill="#13220b"/>
<path d="m1157 75.766c-0.6 0.022-1.8 0.455-2.8 0.738-9.3 4.942-18.7 10.669-26.3 17.83-14.8 25.156-43.5 36.846-68.9 48.226 9.3 9.73 27.7 12.15 36.4 0.56 2.5-15.39 18.8-22.29 30.9-28.83 2.8 1.94-1.3 9.83 3.2 4.07 11.6-11.86 14.6-29.47 26.8-40.858 1.4-1.368 1.3-1.758 0.7-1.736zm-524.43 46.494c-0.25-0.06-0.32 0.79-0.64 3.01-0.04 2.15 3.38 7.72-1.51 5.65-6.05-2.29-13.25-2.78-18.36 1.99 17.02-1.78 30.68 9.78 43.2 19.53-4.26-5.62 2.91-5.68-0.04-7.92-6.72-6.95-19.49-8.61-20.86-19.8-1.08-1.43-1.53-2.4-1.79-2.46zm461.73 27.06c-0.4 0.12-1.2 2.87-1.6 3.04-3.1 5.46-14.1 6.94-11.5 15.17 1.9 7.78 2.2 2.33 4.6-1.93 6.5-4.74 14.3 2.24 21.2 3.36 7 2.97 13.8-2.8 20.8-0.17 13 3.16 21.5 17.08 22.3 29.57-2.8 6.76-4.1 18.83 5.4 20.73 5 2.05-0.7-4.11-0.4-6.75-1.5-4.25-0.7-13.09 5.7-10.24 9.4 4.9 0.9-2.96-1.9-6.75-4.7-5.93-9.1-12.49-10.8-19.99 14.3 1.01 26.7 9.31 40.6 11.97-19.9-20-49.1-27.26-76.5-28.77-6.5 0.68-17.9 0.89-17.7-8.29 0.1-0.74 0-0.99-0.2-0.95zm-167.63 128.87c-3.25-0.06-4.74 4.16-1.41 5.77 3.29 2.46 7.19 3.93 10.91 5.61-1.67-2.33-7.21-8.23-0.73-5.84 3.62 0.92 7.28 1.75 11.03 1.94-4.88-5.24-12.08-7.59-19.12-7.42-0.23-0.04-0.46-0.06-0.68-0.06zm135.43 30.79l-3.2 1.51c-5.1 3.53-6.4 10.58-9 15.27-15.3-3.41-31.6-2.4-45.9-9.56-1.8 0.5 3.2 5.13 5.7 6.39 13 7.8 30.6-0.04 42.3 10.84 5.5-7.18 4.8-17.14 10.1-24.45zm-298.54 29.49c-4.08 0.11-5.58 4.76-5.69 8.17-10.61-0.06-17.68 9.78-27.82 11.37 1.65 12.29-13.12 17.32-22.97 16.44-7.04 0.07-13.84-3.94-17.93-8.82-12.94 1.13-17.43 16.01-22.29 25.79-5.57 15.94-28.27 13.8-35.23 28.83 10.83-5.83 22.85-9.97 32.74-17.36 9.47-8.77 10.13-24.15 21.6-30.93 13.81 10 33.93 6.98 46.94-2.32 2.87-13.31 18.48-15.83 28.91-20.77 2.93-1.19 5.69-4.43 7.83-0.33 10.87 9.65 27.9 18.54 41.92 10.08 2.87-1.85 5.5-4.23 6.85-7.43-10.47 5.64-24.45 10.27-35.12 2.3-6.21-5.22-10.85-14.14-19.74-15.02zm-33.75 53.46l-2.62 2.39c-24.8 22.16-43.66 53.87-77.09 63.99-12.59 2.11-21.38 12.71-30.34 20.98-15.32 15.9-27.83 34.46-44.49 49-10.75 12.28-4.77 29.57-0.21 43.08 3.39 6.62 1.98 14.96 6.02 21.19 7.12 5.77 16.79-0.36 24.29-2.06 4.57-1.35 9.45-3.2 14.24-1.82 2.87-25.83-2.61-54.82 13.96-77.04 8.31-16.4 23.45-27.67 35.96-40.48 2.58-14.59 20.05-17.14 28.63-27.11 5.98-8.84 12.02-17.69 19.33-25.58 6.34-7.55 11.64-16.49 12.32-26.54zm-251.16 18.35c-0.24-0.12-0.44 0.72-1.14 2.91 1.06 5.27-0.29 12.35-6.83 12.99-7.66 1.98 1.65 2.72 4.99 3.26 5.22 0.36 10.21 5.01 7.76 10.3-0.06 6.84 2.43 0.5 3.57-2.2 3.52-1.68 9.19 7.69 5.81 0.12-3.58-8.73-13.58-14.32-12.81-24.61-0.83-1.59-1.1-2.66-1.35-2.77zm-11.17 30.86l-0.16 1.24-0.03 0.19c-1.02 7.63 0.24 15.52 3.39 22.53-1.71-2.56-3.78-4.93-6.35-7.06-4.14-4.01-2.19-2.02-1.11 2.16 10.23 30.61 18.03 62.71 15.43 95.2 3.28 20.86 4.73 42.19 9.64 62.7 4.08 9.5 16.22 6.53 23.93 4.77 6.5-1.87 13.39-0.94 19.27 2.39 12.68 3.86 23.2-9.52 23.1-21.22-0.28-10.42-5.83-19.92-5.67-30.42-0.9-11.12 0.09-22.3 2.08-33.3-7.95-5.07-16.32-9.85-24.41-14.29-4.44-0.91-8.74-1.8-13.04-3.28-2.39 9.6 6.53 16.23 14.2 19.58 7.51 3.2 14.14 9.48 14.39 18.28 3.5 16.52 6.49 33.4 7.58 50.29-1.53 8.51-14.28 13.68-20.76 8.12-3.27-6.15 1.49-16.5-5.64-20.5-5.85-1.78-2.33 7.26-2.62 10.69 1.3 4.53-0.47 11.86-6.51 10.03-3.14-0.76-0.58-6.37-2.04-9.05-2.13-15-12.57-31.79-2.26-45.89 4.77-5.16 1.17-13.29-0.58-19.33-4.34-12.16-14.68-20.53-22.88-29.8-7.37-13.46-6.48-30.99-12.86-44.87 6.94 0.76 9.37-7.58 7.13-12.91-2.04-6.62-5.78-14.6-13.22-16.25zm-121.94 0.23c-7.77 0.78-9.65 10.94-9.19 17.32 0.84 9.38 3.72 18.57 2.67 28.08 9.32-10.08-0.85-23.52 2.33-34.9 1.12-2.83 6.68-7.08 8.21-2.44 4.33 6.92 14.17 9 20.47 3.49 3.1-2.21-0.66 6.7-0.45 8.71-2.84 11.32-4.04 26.55 7.56 33.54-2.24-7.16-6.03-17.28-4.72-26.04-0.09-6.91 4.3-12.66 6.02-18.9-1.19-6.02-9.56-3.37-12.7-0.37-2.75 4.63-8.1 2.15-10.22-1.66-2.63-2.99-5.58-6.86-9.98-6.83zm138.01 20.39c-0.78 0.05-1.25 0.45-0.91 1.49 1.09 9.31 2.26 20.43 10.47 26.41 3.2-8.62 1.89-20.26-5.25-26.54-0.81-0.54-3-1.44-4.31-1.36zm-2.77 18.69c-4.16-0.03-0.56 6.31-0.79 9.4 0.71 5.19 3.18 11.5 9.28 11.96-2.82-6.61 1.08-16.66-6.09-20.96-0.76-0.3-1.59-0.42-2.4-0.4zm11.86 20.07c-0.17 0.02-0.33 0.12-0.45 0.41-6.79 5.41-0.04 14.59 2.85 20.18 1.54 3 1.69 7.93 4.41 3.29 4.01-7.54 1.41-19.01-5.87-23.61-0.31-0.06-0.65-0.29-0.94-0.27zm24.97 63.84c-0.35 0.03-0.64 0.18-0.8 0.53-3.5 4.89-2.34 10.9-0.59 16.42-0.66-0.95-1.49-1.81-2.51-2.54-1.34-0.59-3.87-1.57-4.59-0.13-3.58 7.77 0.38 16.51 4.84 23.01 2.93-4.07 4.99-10.3 4.11-15.59 8.51-2.93 7.38-16.46 1.31-21.27-0.46-0.2-1.19-0.48-1.77-0.43zm-149.97 142.6l-0.58 1.12-0.18 0.34c-4.93 9.86-17.44 12.69-22.34 22.62 10.09 3.71 23.25-1.13 28.31-10.65 2.24-5.07-1.21-10.43-5.21-13.43zm459.83 65.55c-0.3-0.02-0.59-0.01-0.89 0-14.16 1.42-20.16 16.89-31.78 22.99-15.66 8.6-30 19.74-46.25 27-2.61 0.91-11.13 2.37-4.65 3.71 3.61-1.03 5.33 2.51 2.65 5.06-7.29 9.26-15.97 17.58-21.14 28.45-5.66 10.74-11.89 21.73-18.95 31.26 1.02 9.13-6.11 16.49-7.82 25.17-4.04 14.49 5.99 28.02 13.18 39.5 8.81 5.25 21.23 2.73 26.05-6.69 6.33-11.08 7.55-24.69 4.98-37.05 10.79-30.42 33.55-54.24 48.91-82.2 18.53-2.79 26.88-21.84 35.2-36.2 3.13-5.21 6.64-10.24 11.11-14.31-2.47-3.51-6.18-6.53-10.6-6.69zm545.13 10.79c-0.5 0.8-1 1.6-1.5 2.39-0.4 9.13-0.9 19.07-9.1 24.98 6.8-0.43 12.6-5.95 11.9-12.97-0.4-4.8 0.3-9.9-1.3-14.4zm-76.2 62.53c0.5 0.79 0.9 1.57 1.4 2.36 5.2 5.91 15.1 6.13 22.1 3.32 2.3-1.34 4-4.99-0.4-3.74-7.8-0.22-15.5-0.33-23.1-1.94zm-633.97 29.24l-1.23 0.22-0.08 0.01c-7.87 1.23-4.47 14.97-13.17 14.48-5.42-1.62-13.15-6.37-17.62-0.28-5.76 6.27-20.14 8.51-22.85-1.74 0.39-4.14-2.26-3.82-5.18-2.3-13.04 6.14-4.07 25.61-16.13 32.47-6.19 3.91-16.17 3.92-19.23 11.54-0.4 3.96 0.95 7.75 1.42 11.66 4.39 9.76 16.83 8.78 25.59 10.82 7.18 3.2 9.8 13.94 6.33 20.22-6.12-1.44-6.92-12.16-14.65-10.89-6.53-0.61 3.2 3.1 4.82 5.63 12.92 11.91 9.96 35.19-5.79 43.19-7.3 5.6-21.44 5.3-23.39 16.3-1.82 8.2 7.81 11.5 14.25 11.7 9.45 0.4 10.41 11.2 12.63 18.1 5.77 24.7-1.38 49.8-4.42 74.4 6.45 86.6-0.07 173.6 6.54 260.3-8.01-2.4-12.33-10.5-18.75-15.1-1.19-7.1 1.55-18.7-7.36-21.6-5.92-0.3-9.47 7.2-13.78 10.6-5.19 6.3-14.6 13-22.52 8 0.2-3.2 1.01-9.8-4.35-8.5-19.94 4.1-31.84 22.7-44.98 36.4-2.64 4 4.72-0.3 6.34-1.9 12.21-9 20.4-25.5 36.4-27.9 3.87 8.2 14.54 10 21.88 5.5 7.47-3.2 12.69-10 19-14.4 5.71-1 4.51 7.4 4.67 10.9-0.64 8 8.04 12.3 13.16 17 4.9 4 12.71 6.6 11.03 14.3 1.19 19-0.77 38.2 0.28 57.2 9.82 0.6 15.73-8.4 23.78-12 8.63-1.6 12.14 9.2 15.15 15.3 4.91 9.3 6.33 22.5 16.33 27.9 3.91-1.1 5.18-8.3 7.35-12.3 7.08-17.2 9.83-37.6 23.8-51 5.31-0.5 5.19 7.8 9.52 9.8 11.46 11.4 16.26 27.3 18.86 42.7-0.71 4.2 5.29 8.1 6.84 3.1-4.45-28.5 12.24-56.3 6.36-84.7-3.8-2.7 1.9-7.5 3.56-3.2 13.19 17.5 31.62 30.8 51.47 39.7 4.37 0.2-3.92-5.5-6.2-7.2-15.56-11.1-33.69-20.6-42.96-38.1-3.57-4.8-12.8-1.9-10.57 4.7 0.96 13.6 2.13 27.7-0.45 40.9-4.76-25.9-7.7-53-1.1-78.9 11.47 14.6 19.04 34.3 37.21 42.2-10.77-23.8-18.38-49.3-20.46-75.4 12.21 39.3 22.76 82.6 54.38 111.4 6.28 2.8-1.48-5.5-3.19-7.7-25.68-31.8-38.44-71.5-48.38-110.5-8.48-25.4-31.64-45.1-31.67-73.1 0.63-9.4 4.24-18.6 3.74-28.3 3.9-55.3 12.01-111.9 0.15-166.8-4.94-14-25.57-17.5-25.42-34-2.95-16.31-24.49-21.64-24.76-39.15-4.94-34.24 12.42-67.38 7.8-101.68zm123.15 40.14c-0.46 0.1-1.29 1.42-1.93 2.08-8.91 23.93-11.76 50.4-8.73 75.58 3.42 1.61 1.57-10.99 2.47-15.13 0.87-20.56 4.67-40.96 8.5-60.96 0.11-1.24-0.03-1.62-0.31-1.57zm-8.71 83.67l0.11 1.22 0.08 0.9c1.94 20.7 7.88 41.4 19.12 59 0.98-16.2-13.42-28.7-12.33-44.9-1.3-5.5 0.2-14.3-6.98-16.22zm-103.58 38.92c7.29 4.8 7.49 17.5 1.85 23.6-3.43 3.1-2.7-5.3-3.83-7.4-0.94-5.4-1.23-11.4 1.98-16.2zm104.85 2.5c-0.72 0-1.3 0.3-1.6 1-2.32 9.4-3.46 21.3 4.55 28.5 8.1-6 8.27-19.9 1.9-27.2-1.07-1-3.28-2.3-4.85-2.3zm-222.54 2.6c-0.6 0-1.19 0.2-1.73 0.6-3.13 6.6-0.9 14.1-1.61 21 8.58 2.1 11.95-9.5 9.47-15.8-0.61-2.7-3.52-5.9-6.13-5.8zm10.16 9.5l-0.47 0.8c-4.44 6.9-0.48 15.3-1.72 22.8 3.64 1.3 6.14-0.6 7.56-3.5-1.83 14-1.09 28.7 6.11 41 10.71-7.6 6.64-22.5 6.03-33.5-0.84-8.4 1.19-17-1.36-25.2-0.77-1.4-2.4-2.3-4.03-2.2-4.61 1-3.97 8.1-5.45 12.2-0.01-0.1-0.02-0.3-0.04-0.4-0.37-4.4-1.27-11.1-6.63-12zm129.98 8.2c8.66 3.2 6.55 14.2 6.52 21.4-1.26 5.8 0.93 12-0.34 17.5-3.23 5.8-15.27 3.4-12.46-4.1 0.5-10.7-4.96-23.9 3.21-32.8 0.91-0.8 1.94-1.7 3.07-2zm-17.29 14.6c4.81 3.1 1.13 10.1 2.14 14.9-0.15 13.4 3.21 27 1.97 40.2-2.56 4.7-9.95 1.6-6.64-3.6 0-17-4.21-34.7 0.9-51 0.5-0.3 1.05-0.5 1.63-0.5zm-115.41 8.2l-0.92 0.8c-5.13 5.3-7.09 16.1-1.15 21.5 3.34 2.1 8.5 0.5 6.31-4.4-0.28-6 0.47-13.3-4.24-17.9zm-7.44 27l-0.29 1.2-0.17 0.7c-3.59 15.6-1.78 32.2 0.59 47.6 3.3 4.7 8.31-1.2 8.54-5.1 1.2-6-2.79-11.6-1.49-17.8-0.22-8.9 1.64-21-7.18-26.6zm145.04 1.7l0.33 0.6c4.28 11.2 2.36 23.6 2.25 35.2-1.99 5.7-12.53 5.8-11.43-1.5-1.85-11.6-3.94-28.1 8.85-34.3zm-130.39 6.8c-0.37 0-0.76 0.1-1.14 0.1l-0.14 1.2c-2.83 22.7-2.84 46 1.6 68.6 8.16 1 11.73-8.1 10.95-14.9-1.36-14.8 0.48-29.5-0.97-44.3-0.42-5.5-4.64-10.7-10.3-10.7zm122.82 41.7c6.47 3.2 6.74 13.6 3.2 19.3-1.61 2.4-6.62 3.1-5.63-1.2-0.63-4.7-1.3-9.5-2.95-14-8.46 8.8 1.68 21.7-3.35 31.4-3.15 4-4.76-0.3-5.1-3.5-1.37-8.6-2.67-18.2 0.13-26.4 4.18-2.8 10.32-1.2 13.7-5.6zm-129.16 15l-1.88 2.3c-9.8 12.6-4.99 30.1-0.86 44 1.23 3 5.28-2.3 6.38-4.7 5.18-13.7-2.9-27.8-3.64-41.6zm11.04 22.3c-7.96 4.5-5.02 15-3.36 22 6.73 2 8.87-6.6 7.84-11.6-0.65-3.3-0.69-10.3-4.48-10.4zm-22.45 9.1c-0.24 0.1-0.48 0.4-0.71 1.2-7.21 10.2-2.96 23.4-0.59 34.5 9.85-7.9 9.8-24.2 3.09-34.1-0.67-0.4-1.26-1.7-1.79-1.6zm138.52 9.4c8.39 1.3 6.75 12.7 5.36 18.6-3.23 12.8 0.8 26.8-2.56 39-4.83 0.1-5.36-7.2-5.02-11 2.74-15.2-7.96-33.1 2.22-46.6zm-115.84 9.9l-0.64 1-0.3 0.5c-8.05 13.7-0.72 29.7-2.31 44.2 0.31 3.5 3.56 10.7 7.8 7.5 3.19-4.9-0.78-11.2 0.53-16.7-0.33-12 3.41-26.4-5.08-36.5zm-12.67 5.7l-0.65 0.9c-9.43 13.4-4.31 31.3-1.14 45.7 3.09 3.4 8.34 0.8 8.41-3.6 2.58-8.8-3.42-17-1.27-25.8 0.55-5.9 1.34-14.4-5.35-17.2zm-15.01 24.3c-0.57 0-0.99 0.2-1.04 0.9-2.57 7.7-5.15 20.3 4.6 24.1 0.4-7.5 5.69-17.6-0.58-24-0.68-0.4-2.03-1-2.98-1zm14.07 32.6c-0.28 0.1-0.53 0.1-0.76 0.3-6.58 5.4-1.61 14.7 1.26 20.7 6.3-4.1 7.02-14.9 1.95-20.1-0.67-0.4-1.63-0.9-2.45-0.9zm15.48 0.8c-0.86 1.1-1.71 2.3-2.56 3.4-9.5 13.7-1.66 31-1.01 45.9-0.94 4.7 1.38 4.8 4.34 1.9 7.65-8.6 2.81-21.3 1.2-31.3-1.44-6.5-3.08-13.2-1.97-19.9zm-21.6 30.6c-5.57-0.2-1.67 7.8-2.8 11.5 0.42 7-0.95 15.2 1.31 21.2 7.29 2.8 10.61-6.7 10.75-12.3 0.35-6.9-0.27-19.4-9.26-20.4zm111.29 1.8c-0.01 0.9-0.02 1.7-0.03 2.6-0.47 33.1 4.13 66.2 11.97 98.1-3.19 4.9-10.03 6.4-12.15 12.4-9.42 13.9-10.41 32-18.17 46.1-3.76-7.2-5.77-16.3-4.61-24.1 18.67-36 18.84-77.6 20.8-117 0.6-6-0.66-12.5 2.19-18.1zm122.86 2.8c0.07 1 0.13 2.1 0.2 3.1 2.54 43.2 9.17 89.6 38.12 123.7 3.1 3.3 6.35 9.4 11.1 5.4 2.6-2.1 8.94-3.4 4.46-7.2-18.94-30.3-40.69-61.6-42.69-98.6-1.09-9.5-3-20.3-11.19-26.4z" transform="scale(.8)" fill="#5c3f1f"/>
<path d="m599.28 185.37c-0.29-0.01-0.58 0-0.86 0.01-6.81 0.99-11.4 7.55-18.13 9.53-6.69 1.77-13.57 4.39-17.14 10.85-3.37 3.97-6.95 12.56-13.22 11.15-2.3-3.79 4.46-11.02-1.58-13.45-9.49-3.19-17.45 4.53-23.23 10.98-5.34 5.36-14.51 4.96-18.56 12.06-6.73 8.97-6.03 22.21-14.45 29.88-9.4 1.73-17.28-5.26-24.79-9.73-3.98 5.79-14.53 9.27-13.22 17.68 1.07 2.95 3.82 4.6 3.94 7.94 2.77 6.83 14.94 7.81 12.91 16.75 1.12 7.86-8.22 10.84-14.38 8.86-5.32 0.72-10.9-6.94-14.69-1.68-10.95 10.35-22.35 21.14-31.57 32.63-0.37 4.11 3.82 8.86 7.59 5.21 5.39-3.48 10.45-13.45 17.8-9.25 9.36 6.22 4.35 18.22 1.26 26.45-2.43 6.11-3.29 15.22 3.21 18.99 6.22 1.25 14.4-2.08 13.77-9.47 0.33-9.59-6.59-22.25 3.38-29.01 12.59-3.39 15.36-17.73 22.16-26.91 3.75-4.13 9.6-6.49 10.62-12.71 1.09-4.4 4.07-12.34 9.91-8.69 1.81 9.02 12.74 8.58 19.57 10.28 4.59 1.17 5.27 6.43 9.43 7.79 0.16 5.05-9.37 9.67-4.97 15.2 6.29 5.2 15.08-3.73 14.37-10.59 0.42-6.68-8.04-7.91-8.78-14.14-2.27-6.05-1.02-18.84 8.13-17.24 6.01 3.2 9.55 10.31 15.19 14.48 14.96 13.98 37.09 25.03 57.52 16.69 4.12-2.24 11.04-4.05 11.78-8.75-1.37-11.48-9-20.99-16.1-29.41-0.67-7.95 8.82-6.44 13.75-5.23 6.65 1.38 17.51 3.42 20.25-5.05 3.38-10.71-8.02-18.89-7.08-29.07 5.91-7.17 19.11-7.42 25.38-0.75 3.86 6.89-0.7 18.31 8.02 22.57 4.66 0.06 7-7.22 10.37-10.44 3.12-5.03 8.74-5.64 14.08-5.14 7.62-0.13 15.68-4.69 17.17-12.67-8.09-1.67-16.83-3.09-24.86-1.04-5.54-20.68-29.55-30.33-49.32-28.18-9.7 0.68-19.47 6.02-25.44 12.75-3.29-5.92 1.54-16.82-6.62-19.78-0.84-0.24-1.7-0.34-2.57-0.35zm122.78 198.93c-0.29-0.01-0.57-0.01-0.85 0.01-12.23 3.72-23.58 10.47-35.15 15.96-18.64 9.66-36.45 21.16-51.73 35.59-16.54 11.68-36.17 18.91-50.52 33.67-10.75 9.92-19.09 23.36-33.12 29.08-10.9-13.73-11.94-35.74-29.36-43.92-7.15-8.92-19.38-17.88-31.33-12.68 7.86 24.68 27 47.11 22.7 74.21 1.56 9.38 13.29 10.25 19.31 15.75 5.34 3.3 11.02 6.04 16.26 9.53-3.56 19.81-3.25 41.01 4.64 59.7 0.69 5.59-1.29 10.92-1.51 16.53 15.44-1.23 28.41-11.07 39.81-20.74 0.31 2.97 5.95 4.64 9.13 4.61 9.34-0.04 17.2-6.71 26.5-6.79 1.6 7.6 13.1 8.05 15.33 0.63 11.13-11.74 31.84-13.74 38.42-30.36 5.59-4.39 12.6 2.18 18.59 2.61 10.83 3.23 23.32 5.28 33.69 0.12 12.54-2.17 23.98 4.95 36.25 6.14 11.04 4.7 6.5 18.54 9.11 27.85 2.07 11.02 14.69 13.23 23.47 16.74 8.59 3.22 20.46 1.38 23.88-8.29 5.77-10.32 6.51-22.9 11.73-33.15 9.1-4.88 18.48-12.92 29.57-9.5 9.68 0.71 17.03-10.09 26.7-6.42 3.2 10.87 16.44 11.05 25.55 11.16 8.07-0.37 16.93 4.34 17.17 13.31 3.19 13.78 19.32 18.41 31.73 16.1 5.53-1.04 12.2-2.22 16.21-5.85 0.37-5.52-1.25-12.99 5.47-15.33 12.19-6.01 26.69-0.45 39.09-6.28 6.4 1.99 6.4 13.23 14.4 13.28 12.2 2.14 23.8 14.62 37.1 9.75 4.4-1.3 6.7-5.58 4.2-9.69-5.2-10.34-19.7-14.42-20.4-27.2-2.9-10.25-14.4-13.8-23.9-11.85-11.4 1.21-26.9 6.37-34.5-5.52-1.8-4.45-7.59-6.26-8.89-10.77 5.19-6.45 15.09-17.74 22.99-8.54 7.3 6.31 20.6 9.61 27.5 1.12 3.3-3.78 2.4-13.35 9.2-12.24 1.9 1.42 1.4 5.84 4.4 7.31 6.3 5.53 20.1 3.06 19.8-6.77-1.6-11.88 13.2-24.58 23.9-17.7 0.5 9-14.1 11.22-12.1 20.91-1.5 7.75 7.6 10.39 13.1 12.74 6 6.46 14.2 11.44 23.3 11.1 12.3 0.73 27.7-7.66 26.2-21.66 1.2-7.97-9.5-7.04-11.3-13.12 1.7-5.31 9.8-3.33 14.2-4.39 8.9-0.65 11.9-11.14 20.5-12.83 16.7-5.93 35.3-0.61 52-6.74-1.3-10.19-13.3-11.12-20-16.27-3.5-4.87-6.3-10.76-12.3-13.28-10.8-5.52-23.5-3.9-35.1-3.49 1.7-9.29 0.2-25.55-12.6-25.02-8 0.72-14.2 7.05-22.5 6.85-12.4 0.79-25.2-0.36-36.7-5.39-8.2-2.82-17.4-0.17-23.7 5.04-11.2-0.86-24.2-5.05-34 2.65-11.4-8.89-31.3-2.5-33.3 12.47 0.7 9.06-2.96 17.86-10.09 23.64-6.31 5.85-13.44 11.55-17.97 18.8-2.7-3.15 1.93-8.06 2.2-11.79 4.33-6.43 1.89-15.98-5.49-19.04-6.01-2.93-12.75-0.79-19.03-0.42-19.35 5.12-22.05 32.7-42.9 35.05-7.68-7.47-12.75-17.38-17.64-26.47-16.85-6.64-34.35 7.06-39.54 22.77-2.28 6.2-3.14 13.01-1.89 19.53-13.57-1.2-27.56-1.58-40.93 0.07-5.34-8.44-6.66-22.3-18.35-24.59-9.46-4.59-14.99 11.73-24.32 6.6-17.94-6.17-37.37-6.06-56.06-5.52-5.91 1.18-6.86 10.91-13.2 9.94-3.38-2.31 0.47-8.09 1.54-11.18 3.72-6.8 9.46-16.33 3.88-23.59-6.73-4.1-13.45 2.04-15.83 8.13-2.78 3.54-8.78-1.26-13.11 0.58-7.67 3.64-12.67 11.48-19.31 16.69-12.72 11.82-22.9 26.47-29.3 42.58-7.1 20.79-2.68 43.37-6.54 64.46-6.29 7.41-18.18-2.17-25 4.39-0.14 0.36-0.19 0.7-0.2 1.02-4.1 1.35-10.16 1.38-9.91-4.33 1.36-19.32-14.74-37.28-7.82-56.49 4.1-9.18 13.91-13.7 19.51-21.85 15.95-18.16 30.3-38.77 51.09-51.68 30.63-5.72 51.25-31.4 71.35-52.9 4.3-6.21 12.6-9.75 15.2-16.94 0.62-4.75-4.27-8.02-8.58-8.2zm-277 89.1c-0.52-0.02-1.04-0.01-1.56 0.02-13.78 1.54-18.86 16.9-25.04 27.11-4.33 7.46-10.37 18.74-20.69 16.02-12.8-0.75-24.27 7-32.25 16.26-7.74 3.66-10.04-6.81-11.85-12-1.45-6.4-7.4-13.29-14.57-10.18-6.21 2.45-8.65 10.09-14.51 13.55-15.64 12.99-36.52 16.53-55.67 19.34-5.81 7.13 1.8 16.6-2.07 23.78-7.79 6.6-21.53-2.67-27.8 6.72-1.52 2.61-1.31 4.86 2.07 4.93 6.62 3.55 2.13 12.44 2.15 18.18 0.14 4.72 7.83 3.28 11.74 3.59 20.01-1.5 38.42-15.9 58.78-9.72 10.59 2.89 21.93 13.4 33.19 6.73 11.6-9.82 28.98-2.67 40.9-12.04 22.58 10.43 51.13 5.72 70.05 23.96 7.24 7.5 11.87 18.64 22.08 22.67 4.93 1.44 13.46-0.35 12.06-7.1-5.3-23.71-8.1-48.12-10.86-72.17 3.45-13.65-6.66-25.56-16.97-32.99-5.77-4.98-12.86-9.43-16.6-16.05 0.59-9.72 10.22-17.38 7.73-27.56-3.2-1.63-6.69-2.93-10.31-3.05zm644.44 228.97c-0.7-0.03-1.4-0.03-2.1 0-9.1 0.21-20.1 4.26-23.6 13.31-1.2 9.31 7.3 16.88 6.8 25.76-6.1 9.31-21.3 13.6-21.3 26.43 3.4 11.27 6.1 25.28-2.8 34.88-3.3 5.46-6.2-2.5-9.6-3.97-7.1-6.38-20.7-10.64-27.4-1.43-5.2 5.31-7.8 16.86-16.96 15.84-6.02-2.55-8.81-9.75-14.17-13.53-7.32-6.71-13.69-15.35-15.55-24.99-8.62-6.35-19.56-0.48-25.55 6.69-9.01 8.29-15.29 22.09-28.38 24.38-3.62 0.15-6.98-1.7-9.64-4 6.26-3.07 9.23-11.35 4.49-17.02-4.87-8.02-16.68-15.32-12.08-26.03 4.1-4.86-2.38-11.11-7.09-13.29-12.17-4.59-24.49 4.05-36.02 5.47-8.96-5.3-20.22-6.06-29.96-2.55-3.44-9.57-18.97-14.35-24.43-4.05-11.43 18.82-18.87 44.09-41.49 52.43-20.6-1.87-41.94-3.2-62.22 1.45-15.4 6.53-12.28 29.99-28.75 35.02-7.29 5.67-14.3-2.43-19.12-7.24-5.84-6.72-15.64-4.93-22.05-0.15-9.14 6.55-12.17 17.97-17.12 27.47-7.04-0.89-14.24 0.64-20.58 3.73-2.95-11.39-1.5-23.22-1.2-34.72-2.51-11.47-20.55-10.86-24.76-0.79-4.2 7.84-9.66 16.55-18.44 19.06-2.99 8.84-12.33 18.05-22.06 14.93-1.26-6.16 1.21-15.45-5.81-18.73-12.29-0.1-21.42 11.01-25.9 21.11 11.52 43.9-11.91 88.34-2.96 132.61 9.8 19.25 23.52 41.55 15.33 63.75-2.48 5.2-5.92 9.6-4.26 15.8 0.17 98.5-7.75 199.6-46.98 291.1-10.17 61.4-42.72 116.3-80.02 165.2 16.94 6.5 33.18-5.9 46.87-14.3 30.33-18 61.57-35.1 95.07-46.4 1.37 19.9 2.15 40.2 5.49 59.9 1.06 21.6-11.46 44.5-1.7 65.7 32.39-29.6 71.02-52.3 99.34-86.2 7.21-6.1 18.47-8 23.87-15.5-2.57-14.4-9.77-27.5-17.1-39.9-6.12-4.1-11.63 4.4-16.83 6.5-2.9 1.7-8.85 4.8-7.23-1.2-0.76-19.6 2.06-39.8-1.13-58.9-7.71-6.6-18.18-11.3-23.04-20.4-0.45-5.2 1.61-15.1-5.64-16.3-6.83 0-9.7 8.3-15.34 11-6.43 5.5-18.55 9.7-24.1 0.7-2.51-5.5-9.66-0.8-13.84 1.1-12.6 7.2-19.37 22-32.71 27.8-3.68 0.4 1.87-3.6 0.92-5.2 4.66-20 18.85-35.8 27.29-54.1 13.13-34.8 22.75-72.1 20.26-109.5-6.79-49.6-1.02-100-6.08-149.6-2.35-6.3-10.55-10.5-7.54-18.1 1.52-37.6-5.53-74.83-4.86-112.36 0.23-2.78-2.22-2.42-2.95-0.67 1.88-21.76-3.79-44.3 2.98-65.34 9.16-10.03 29.37-6.58 34 6.36 7.34 12.87 18.17 23.68 22.51 37.93 5.99-6.21 14.7-6.84 22.35-8.82 11.17-5.08 7.95-19.44 12.2-28.55 1.09-2.32 6.43-7.23 6.62-2.32 3.89 10.65 18.93 9.04 25.82 2.4 4.35-6.62 11.46-0.24 17.13 0.3 7.91 0.39 8.15-9.72 11.86-14.13 3.63 35.75-16.06 71.3-6.3 106.97 5.09 13.52 23.42 19.13 23.43 35.03 2.88 16.2 25.67 19.2 26.32 36.3 10.44 57.4 0.97 115.8-2.44 173.5-7.77 19.7 1.55 40.5 12.2 57.1 9.59 14.7 17.88 30.2 21.07 47.7 9.73 36.9 24.83 73.2 49.99 102.3 2.52 3.1 0.51 4.2-2.4 2.1-18.87-11.1-39.06-21.2-53.15-38.5-2.65-3.3-6.4-10.9-11.65-6.8-4.42 4 1.64 9.1 0.54 13.9 1.63 26.5-11.55 52-7.49 78.6-1.52 33.3 8.17 66 21.75 96.1 7 1.6 6.8-7.7 6.63-12.1 1.23-19.4 9.51-37.4 19.12-54 4.82-8.8 9.69-17.6 13.34-27 28.36 7.1 53.29 23.7 77.03 40.1 17.04 13 36.13 26.2 58.34 26.9-12.49-27.9-32.13-54.1-48.21-78 18.74 4.2 34.53 16 52.83 21.5-37.25-60.9-75.02-123.2-93.01-193-17.77-56.1-29.48-114.9-29.23-173.7 1.28-18.4 10.64-35.1 15.83-52.5 0.75-8.6-6.73-16.5-14.14-19-4.19 1.3-8.12 9.6-12.33 4.5-6.7-20.7 0.64-44.1-9.6-63.9-2.42-22.84-2.12-46.1 3.18-68.46-0.53-14.71 12.11-25.4 14.85-39.36 18.48-15.85 29.45-42.18 53.97-49.68 12.36 9.53 26.06 19.18 36.05 31.8 25.41-0.13 45.15 19.52 68.96 25.59 12.82 12.52 33.08 10.02 47.13 19.8 9.33 11.5 25.73 12.88 39.43 12.31 13.4 3.51 22.3-9.89 31.7-16.61 7.4-5.98 18.2-3.34 23.8 3.83 14.8 12.34 30.8 24.54 47.4 33.46-2.2 3.27 1.3 7.93 4.6 4.7 1.7-1.95 2.1 3.24 4.7 3.2 2.4 1.3 5.9-0.45 6.2 3.17 0.8 3.44 7.2 5.25 6.3 0.21 0.7-1.32 3.2 4.92 5.3 5.01 7.5 2.81 18.3-4.51 23.6 3.52 0.5 2.5 7.1 5.03 8 1.65-1.1-2.21-6.5-5.6-3.9-7.45 4.1 5.66 11 1.42 15.6-0.82 2.7-2.57 10.4 4.96 7.2-0.07-7.7-11.06 1.2-24.44 9.5-32.23 4.8-3.99 6.9-10.43 13.1-12.96 4.1-2.35 7.7-6.11 9-10.62 8.6-3.86 14.1-12.54 23.2-15.27-4.3-3.12 0.4-5.51 3.3-6.7 3.4-5.71 0.9-14.07 1.3-20.7-1-10.55 0.7-24.35 12.4-28.35 38.9 4.2 75.9-27.86 81.5-65.81-9.1-4.46-15.2 6.96-23.4 8.27-7.4 0.18-15.5-1.19-19.8-8.03-6.8-8.42-11.2-22.77-24-23.22-6.5-0.96-11.5 3.91-12.7 9.94-0.7 3.4-3.3 6.91-6.6 3.66-8.9-4.95-13.9-18.47-25.6-17.25-11.4 2.04-13.7 15.34-17.5 24.43-4.2 11.99-7.3 24.73-15 35.1-13.5-4.59-23.9 8.92-36.5 10.07-2-4.04-1-11.04-2.8-16.15-1.2-7.87-7.5-14.34-15.3-15.46-8.4-7.14-18.7 0.52-27.4 2.23-7.6 0.89-10.5-7.96-16.9-10.36-4.8-3.83-15.3-6.75-13.4-14.62 3.1-8.14 16-12.23 13.8-22.36-4.3-6.57-12.4-12.11-10.7-21.08-1.2-11.33-12.2-17.88-22.8-18.26zm-262.18 72.63c3.56 0.18 9.79 3.51 5.16 6.37-12.78 14.25-16.95 37.31-36.39 44.67-4.7 0.44-7.56 2.71-9.19 7.16-15.31 26.34-37.05 49.63-46.57 78.94 2.7 13.84 1.59 30.64-9.23 40.81-10.05 7.59-23.35-0.65-27.73-10.81-7.61-15.11-3.78-33.49 3.73-48-8.38-12.49-12.9-30.28-5.33-43.97 19.22-18.11 44.33-28.08 68.84-36.82 14.04-10.06 31.21-16.26 41.95-30.43 3.93-3.65 8.49-7.59 14.09-7.91 0.21-0.02 0.44-0.02 0.67-0.01zm-416.4 125.11c-10.39-0.3-17.22 9.56-20.93 18.31-2.3 6.21-6.25 11.13-12.54 13.39-13.28 8.08-25.45 18.67-34.43 31.36-4.15 8.71-7.59 19.62-18.13 22.24-8.26 2.36-14.8-6.47-17.23-13.22 0.93-5.15 3.73-12.88-1-16.81-4.8-0.77-7.57 4.81-6.66 8.99-1.65 14.73-15.9 28.78-31.32 25.84-5.91-11.99-11.03-25.11-10.16-38.57-10.55-0.37-14.87 13.37-11.22 21.68 2.87 12.78-3.88 27.98 5 39.28-2.79 10.1-16.05 8.1-21.85 14.8-3.82 6.6 6.26 13.7 1.28 19.4-3.23 1.9-5.45 4.9-8.01 7.5 3.35-6.2 8.1-15.2 2.47-21.2-3.26-1.2-6.55 0.7-8.88 2.9 9.65-15 21.86-33.4 14.94-51.95-4.27-6.14-1.68-16.62-9.61-19.95-5.39-1.65-6.66 6.38-7.71 10.43-1.15 5.33 0.09 12-0.51 16.49-3.67-3.02-5.83-11.16-12.16-8.77-10.01 7.03-8.47 21.35-9.78 32.15-0.95 4.4-1.11 13.4-7.85 11.6-8.55-1.8-17.31-12.1-26.43-6.2-5.52 11.1-3.4 25.8-10.97 36.6-3.77 6.2-10.99 8-17.6 8.9-7.06 3.5-9.2 12.1-14.17 17.5-3.21 12.1 10.18 21 8.22 33.1-0.21 4.9 5.73 5.9 8.95 3.2 6.46-4.1 13.67-5.7 19.51-10.8 12-7 29.13-15.3 42.16-5.8 4.22 3.4 5.53 9.6 11.65 10.3 14.76 3.7 28.7-5.9 40.28-13.8 11.2-9.5 5.14-27.9 16.1-37.3 9.53-5.8 23.1 0.8 31.1-8.6 20.48-17.5 30.44-47.1 57.14-56.98 4.57-2.05 10.9-0.8 12.16-6.82 7-12.17 16.91-23.34 28.98-30.23 10.61 0.34 13.36 12.52 20.86 18 9.93-17.06 29.99-30 30.84-51.35-0.06-3.88-0.13-11.43-2.99-3.78-2.4 4.89-4.41-2.87-4.78-4.65-0.12-8.83-7.31-16.24-16.15-16.63-2.14-0.29-4.29-0.38-6.45-0.36-0.72-0.11-1.43-0.17-2.12-0.19zm262.1 135.19c-0.42 0.1-0.83 0.2-1.23 0.4-6.49 8.8-2.77 20.4-0.25 29.9 10.57-1.7 11.56-15.9 8.2-23.9-1.04-2.7-3.85-6.5-6.72-6.4zm22.72 22.8c-0.27 0-0.54 0-0.8 0.1-11.06 4.8-9.65 19.1-8.47 29 1.61 5.4-2.51 14.1 4.44 17.1 6.18 3.3 16.22-1.8 13.86-9.5-1.91-11 3.91-24.4-3.87-34.1-1.37-1.2-3.28-2.4-5.16-2.6zm-17.6 14.6c-6.58 0.8-4.89 9.8-6.05 14.6-1.13 14.7 1.92 29.5 0.94 44 2.43 7.8 15.15 2.2 12.48-5.1-0.84-16.2-3.05-32.4-2.3-48.6-0.61-2.4-2.32-5-5.07-4.9zm23.53 36.2l-1.03 0.4c-11.52 4.5-14.04 18.3-12.36 29.2 0.99 5.6-0.42 15.9 7.86 16.2 6.79 0.3 11.75-6.6 9.84-13.1-0.23-10.9 1.76-23-4.31-32.7zm-9.02 49.2c-3.01 1.9-6.4 4.3-10.59 4.2-8.34 1.1-6.44 11.4-6.71 17.3 0.08 7.2 1.03 14.4 3.86 21.1 6.67 0.4 10.34-6.5 9.02-12.4-0.36-5.5-2.19-12.1-1.24-16.8 1.71 4.3-0.69 14 6.28 12.8 8.9-1.9 8.75-14.1 5.97-20.7-1.12-2.7-3.35-5.7-6.59-5.5zm-1.3 55.9c-0.67 0-1.37 0.1-2.1 0.4-10.21 13.1-1.96 30.3-2.56 45-1.01 5.9-1.02 15.5 6.11 17.3 6.24-0.2 4.18-8.7 4.87-13.1-0.61-11.9 0-23.6 2.24-35.2 1.01-6-2.14-14.5-8.56-14.4zm101.18 117.5l0.43 0.7c7.65 14.5 4.67 31.8 10.4 47 8.03 26.7 24.41 49.7 38.61 73.1-2.97 1.8-6.98 6-9.24 1.1-30.12-32.9-37.48-79-40.2-121.9zm-113.79 95.1c-6.79 1.3-9.29 9.6-12.85 14.6-8.37 16.6-11.59 35.3-20.41 51.7-5.68 19.1 5.34 37.7 11.29 55.2 1.34 4 7.42 4.6 8.05-0.2 6.91-30.1 14.94-60.2 28.21-88.2 2.45-10.9-5.1-20.7-9.57-30-1.09-1.6-2.71-3.1-4.72-3.1z" transform="scale(.8)" fill="#080401"/>
<path d="m470.95 426.43c-0.5 0.01-0.98 0.04-1.44 0.09-10.64 7.86-8.22 23.18-5.94 34.21 17.01 15.22 9.6 42.29 23.45 59.36 11.76 10.22 23.89 24.66 22.26 41.02-10.81 11.4-5.31 28.19-1.42 41.24 1.58 5.86 2.89 12.22 2.19 18.51 4.8 2.11 12.61 1.35 13.08-5.15 1.12-4.6-1.4-11.59-0.1-14.57 4.79 5.94-1.08 17.28 6.49 21.62 10.38 4.31 25.31-4.6 22.55-16.58-2.89-18.76-4.06-38.26-10.66-56.16-5.83-10.15-21.65-10.12-25.39-21.72 0.3-5.88-4.9-10.56-3.96-16.83 0.44-6.6 2.29-12.85-0.84-19.18-5.57-18.73-16.64-35.39-25.08-52.59 3.19-9.41-7.73-13.46-15.19-13.27zm-1.14 18.2c5.88 4.81 11.27 14.05 7.98 21.62-4.16 4.48-5.32-4.36-6.63-6.95-1.29-4.56-2.32-10.54-1.35-14.67zm15.6 20.03c6.7 4.01 7.23 13.59 6.5 20.64-4.61-5.65-5.95-13.92-6.5-20.64zm-3.78 18.34c5.2 2.49 3.15 10.01 4.16 14.68-3.42-3.91-3.56-10.01-4.16-14.68zm11.64 20.39c4.89 4.13 6.76 13.04 4.69 18.05-1.59-5.2-9.48-12.74-4.69-18.05zm25.09 63.69c3.63 3.94 4.69 11.42 0.93 15.6-1.54-4.83-3.69-10.86-0.93-15.6zm-7.12 13.44c6.5 1.83 4.78 12.82 2.46 15.96-2.51-4.61-4.94-11.12-2.46-15.96zm7.27 300.63c-0.43 0.01-0.86 0.02-1.29 0.05-5.36 0.55-13.58 0.95-13.42 8.02-4.65 22.63 1.21 45.85-2.36 68.51 2.44 1.61 5.45-3.71 4.04 1.7-0.43 36.67 7.06 73.27 4.24 109.77 1.69 7.2 10.57 11.1 8.77 19.5 3.25 49.5-0.98 99.5 5.8 148.8 0.12 37.4-8.82 74.5-23.65 108.7-10.11 15.8-20.42 32.1-25.42 50.3-2.81 2.4-0.91 7.1 2.9 5.9 6.93-2.4 10.31-10.5 15.8-15 8.34-9.1 18.61-19.6 31.42-20.5-0.24 3.5-0.95 9.5 4.23 9.4 12.01 3.7 20.89-8 28.12-15.5 2.44-3.9 8.07-6.1 9.77-0.4 2.88 6.5-1.93 16 5.45 19.8 5.82 5.6 11.33 13.2 20.1 13.7-7.03-88-0.2-176.5-6.87-264.6 4.64-28.9 12.82-60.9-0.95-88.7-4.66-7.8-17.5-2.5-21.39-10.7-1.74-9.6 10.09-12 16.66-14.7 12.03-4.9 21.77-16.68 20.61-30.19-0.43-12.51-9.58-25.28-22.81-26.01-8-1.38-16.63-6.78-15.7-15.96-0.97-13.59-2.14-31.32-16.16-38.01 0.66-14.83-14.46-24.06-27.89-23.88zm52.66 91.78c0.75-0.03 1.53 0.01 2.33 0.11 9.19 1.5 11.49 12.34 15.77 19.22 1.7 7.74-9 8.94-14.33 10.24-6.05 2.7-13.83 1.2-16.41-5.5-4.41-9.7 1.31-23.7 12.64-24.07zm-15.3 72.47c6.04 2.8 5.62 15-0.98 16.8 0.28-5.5-1.28-11.7 0.98-16.8zm22.3 9.7h0.2c4.36 3 0.87 9.9 2.64 14.5-2.43 12.8 5.06 27.2-2.16 39-1.95 2.7-2.52-4.4-3.52-5.5-4.37-15.6-2.95-33.3 2.61-48h0.23zm-11.13 0.5c3.25 4.8 4.87 14.1-0.26 18.2-1.18-1.4-0.21-6-0.96-8.4-0.22-3.1-0.63-7.5 1.22-9.8zm-4.29 31.6c0.07 0 0.13 0 0.19 0.1 2.12 5.3 2.19 11.9 1.35 16.8-6.27-1.2-4.57-10.4-2.83-14.8 0.25-0.2 0.84-2.1 1.29-2.1zm-5.63 27.8c6.45 11.1 0.58 25.3 5.02 37.1-0.17 2-1.25 7.9-4.12 6.7-2.04-14.2-3.73-29.5-0.9-43.8zm14.2 6.6c8.82 2.1 7.08 13.6 7.26 20.5-0.29 11.5 0.04 22.9 0.35 34.4-0.12 3.9-1.55 9.3-6.31 9.7-3.92-21.3-3.88-43.2-1.3-64.6zm-9.13 60.3l0.08 0.5c1.61 11.5 8.23 24.7 1.86 35.7-2.13 3.2-2.07-4.1-3.04-5.6-2.28-9.9-4.15-21.2 1.1-30.6zm13.14 19.1c1.33 5 3.88 13.1-1.11 16.6-2.03-3.6-3.94-14.1 1.11-16.6zm-22.07 10.4c4.22 8 4.46 18.7-0.62 26.4-1.57-8.3-4.86-19.3 0.62-26.4zm22.17 19.5l0.14 0.2c5.89 14.4 0.08 30.5 3.02 45.4-1.21 4-3.82-2.5-4-3.9 1.33-13.7-5.03-28.4 0.84-41.7zm-12 4.6c5.81 8.3-1.54 19.6 3.33 28.5 0.27 4.2 1.81 11.2-2.42 13.7-3.96-2-2.29-8.8-3.95-12.5-1.57-9.6-3.14-22 3.04-29.7zm-14.91 23.6c4.94 4.5 1.17 12.6 0.64 18.2-4.49-5-2.06-12.6-0.64-18.2zm13.41 32.4c4.27 2.7 3.16 11.8 0.79 13.9-1.69-4.2-4.67-10.1-0.79-13.9zm12.44 6.7l0.09 0.9c1.18 12.6 8.34 26 3.07 38.3-2.52 4.5-1.36-2.6-2.11-4.3-1.4-11.5-5.52-23.7-1.05-34.9zm153.33 14.2c-0.49-0.1-0.64 1.8-0.88 3.1 0.29 26.9 8.43 55.2 17.78 78.7-14.81-10.3-20.67-28.4-32.71-41.3-9.25 30.8-4.6 63.5 1.75 94.4 7.16-17.4 3.6-36.8 3.77-54.7 4.38-3.7 7.52 2.9 9.35 6 12.69 17.9 33.5 26.9 50.01 40.5 2.67 2.6 13.26 6.9 11.15-0.7-4.24-8.1-12.75-13.2-17.43-21.1-22.35-30.5-29.51-68.4-41.86-103.3-0.41-1.1-0.7-1.6-0.93-1.6zm-58.31 2.9c-0.73 0.8-1.47 1.5-2.2 2.2-7.62 7.8-3.82 19.8-5.72 29.4-0.94 37.8-3.1 77.3-20.96 111.5 0.83 9.5 1.61 20.1 8.27 27.6 10.67-17.3 10.03-40.1 24.44-55.2 4.47-2.3 10.61-6.9 7.05-12.6-8.36-33.6-12.04-68.2-10.88-102.9zm-113.92 7.5h0.43c7.43 3.4 6.69 13.9 5.9 20.6-0.64 3.1-2.11 8.3-6.22 7.5-0.41-9.1-0.88-19.7-0.11-28.1z" transform="scale(.8)" fill="#e8ca7d"/>
</svg>
